<svg width="750" height="500" viewBox="0 0 750 500" fill="none" xmlns="http://www.w3.org/2000/svg">
<path d="M242.619 69.017C240.475 69.543 238.553 70.501 236.912 71.772C236.337 72.217 235.71 72.586 235.042 72.859L227.604 42.544C227.056 40.312 224.804 38.947 222.572 39.495L191.029 47.234L191.907 50.814C192.11 51.641 192.475 52.418 192.973 53.109C193.975 54.498 194.736 56.094 195.17 57.859C197.03 65.44 192.233 73.095 184.509 74.667C177.703 76.052 170.76 71.982 168.639 65.369C167.892 63.038 167.806 60.683 168.25 58.473C168.448 57.486 168.453 56.471 168.213 55.493L167.597 52.983L135.615 60.722C132.875 61.394 131.198 64.161 131.871 66.901L138.738 95.023L136.559 95.558C136.312 95.619 136.059 95.673 135.804 95.717C132.624 94.41 129.017 94.06 125.422 94.942C116.405 97.154 110.889 106.257 113.101 115.275C115.313 124.293 124.416 129.808 133.433 127.596C136.382 126.872 138.953 125.408 141.006 123.454C141.417 123.254 141.846 123.094 142.293 122.985L145.089 122.299L152.788 153.678C153.46 156.418 156.227 158.095 158.967 157.423L246.25 136.008C248.482 135.46 249.847 133.207 249.299 130.976L241.46 99.027C242.031 99.03 242.603 99.095 243.166 99.216C246.155 99.86 249.391 99.631 252.529 98.268C258.756 95.563 262.495 88.89 261.595 82.12C260.357 72.804 251.437 66.854 242.619 69.017Z" fill="#B9FAB4"/>
<path d="M631.283 236.625C632.545 237.211 633.868 237.497 635.176 237.518C635.634 237.526 636.088 237.591 636.524 237.72L628.236 255.563C627.626 256.876 628.196 258.436 629.51 259.046L648.076 267.67L649.055 265.563C649.281 265.076 649.408 264.55 649.435 264.014C649.49 262.936 649.744 261.851 650.227 260.812C652.3 256.35 657.676 254.475 662.095 256.745C665.989 258.746 667.8 263.484 666.237 267.573C665.686 269.014 664.8 270.206 663.711 271.119C663.224 271.527 662.822 272.024 662.555 272.599L661.869 274.076L680.651 282.873C682.264 283.622 684.179 282.922 684.928 281.309L692.633 264.769L693.915 265.365C694.061 265.432 694.206 265.505 694.349 265.584C695.398 267.48 697.035 269.074 699.151 270.057C704.458 272.522 710.759 270.218 713.225 264.911C715.69 259.604 713.386 253.303 708.079 250.837C706.343 250.031 704.501 249.738 702.722 249.89C702.441 249.826 702.167 249.736 701.904 249.614L700.258 248.85L708.837 230.381C709.586 228.768 708.886 226.853 707.273 226.104L655.898 202.24C654.584 201.63 653.025 202.2 652.415 203.514L643.68 222.319C643.4 222.093 643.145 221.835 642.916 221.554C641.699 220.059 640.018 218.896 637.937 218.331C633.808 217.208 629.338 219.017 627.114 222.701C624.05 227.772 626.093 234.214 631.283 236.625Z" fill="#B9FAB4"/>
<path d="M662.705 436.427C663.525 435.709 664.151 434.851 664.581 433.92C664.732 433.594 664.923 433.289 665.154 433.018L675.312 444.622C676.06 445.476 677.359 445.563 678.213 444.815L690.287 434.245L689.087 432.875C688.81 432.558 688.473 432.301 688.097 432.111C687.342 431.73 686.645 431.203 686.053 430.527C683.513 427.625 683.875 423.176 686.905 420.73C689.575 418.574 693.546 418.78 695.981 421.198C696.839 422.05 697.412 423.064 697.72 424.134C697.858 424.612 698.086 425.058 698.414 425.433L699.255 426.394L711.522 415.724C712.571 414.806 712.677 413.211 711.759 412.162L702.35 401.39L703.184 400.66C703.279 400.577 703.377 400.496 703.479 400.419C705.171 400.269 706.833 399.602 708.209 398.397C711.661 395.375 712.009 390.128 708.988 386.676C705.966 383.224 700.719 382.876 697.267 385.897C696.138 386.885 695.343 388.112 694.888 389.436C694.753 389.617 694.601 389.785 694.43 389.935L693.36 390.872L682.845 378.861C681.927 377.812 680.332 377.706 679.283 378.624L645.872 407.871C645.018 408.619 644.931 409.918 645.679 410.772L656.385 423.002C656.134 423.131 655.868 423.232 655.594 423.307C654.136 423.704 652.769 424.541 651.703 425.853C649.587 428.456 649.465 432.234 651.4 434.998C654.064 438.801 659.329 439.382 662.705 436.427Z" fill="#F5F5F5"/>
<path d="M543.597 90.64C541.92 90.175 540.229 90.092 538.61 90.333C538.043 90.417 537.469 90.429 536.905 90.359L543.486 66.647C543.97 64.902 542.948 63.094 541.202 62.609L516.53 55.762L515.753 58.562C515.573 59.209 515.524 59.884 515.601 60.551C515.754 61.892 515.662 63.283 515.279 64.664C513.633 70.594 507.382 74.006 501.465 72.108C496.252 70.435 493.047 64.958 494.141 59.593C494.526 57.702 495.376 56.05 496.534 54.701C497.051 54.099 497.446 53.403 497.658 52.638L498.203 50.675L473.229 43.659C471.086 43.064 468.866 44.32 468.271 46.463L462.144 68.447L460.44 67.974C460.247 67.92 460.052 67.861 459.86 67.792C458.178 65.667 455.832 64.035 453.021 63.254C445.968 61.297 438.664 65.428 436.706 72.48C434.749 79.533 438.879 86.837 445.933 88.795C448.24 89.435 450.572 89.42 452.737 88.869C453.097 88.89 453.454 88.946 453.803 89.043L455.99 89.65L449.179 114.194C448.584 116.338 449.839 118.557 451.983 119.152L520.255 138.099C522.001 138.583 523.808 137.561 524.293 135.816L531.228 110.826C531.619 111.048 531.987 111.313 532.328 111.614C534.135 113.21 536.448 114.301 539.131 114.574C544.456 115.116 549.601 111.971 551.593 106.969C554.332 100.087 550.495 92.555 543.597 90.64Z" fill="#F5F5F5"/>
<path d="M32.787 346.022C34.319 346.592 35.895 346.806 37.429 346.711C37.966 346.678 38.504 346.713 39.027 346.824L30.96 368.483C30.366 370.077 31.177 371.851 32.772 372.445L55.308 380.839L56.26 378.282C56.48 377.691 56.58 377.063 56.563 376.433C56.528 375.165 56.726 373.871 57.196 372.61C59.213 367.193 65.338 364.503 70.722 366.756C75.466 368.741 78.023 374.124 76.568 379.057C76.055 380.795 75.127 382.273 73.935 383.442C73.403 383.964 72.977 384.583 72.717 385.282L72.049 387.075L94.855 395.651C96.813 396.38 98.991 395.384 99.721 393.426L107.224 373.347L108.781 373.927C108.958 373.993 109.135 374.064 109.309 374.144C110.712 376.268 112.775 377.984 115.344 378.941C121.786 381.341 128.954 378.063 131.354 371.621C133.753 365.179 130.476 358.011 124.034 355.612C121.927 354.827 119.743 354.653 117.673 354.995C117.338 354.947 117.008 354.866 116.689 354.747L114.691 354.003L123.041 331.584C123.77 329.626 122.774 327.448 120.816 326.718L58.455 303.492C56.86 302.898 55.087 303.709 54.493 305.304L45.991 328.131C45.643 327.892 45.32 327.614 45.025 327.305C43.463 325.666 41.386 324.459 38.897 323.987C33.958 323.051 28.89 325.58 26.623 330.1C23.503 336.319 26.487 343.676 32.787 346.022Z" fill="#F5F5F5"/>
<path d="M358.785 297.562C364.352 297.176 369.168 298.685 373.82 300.854C375.899 301.823 378.346 302.525 380.642 302.525L386.733 302.386L386.805 234.677C386.805 228.282 381.589 223.099 375.155 223.099L310.792 223.337V221.949C310.792 219.229 311.489 216.574 312.68 214.125C315.802 207.708 317.083 200.247 315.738 192.377C313.069 176.759 300.024 164.573 284.179 162.849C262.375 160.477 243.929 177.385 243.929 198.575C243.929 203.726 245.032 208.616 247.001 213.042C248.02 215.333 248.61 217.787 248.61 220.292L248.991 223.336H245.092H171.422C164.988 223.336 159.772 228.52 159.772 234.914V301.118H154.24C151.666 301.118 149.154 300.459 146.837 299.331C140.765 296.377 133.325 295.165 125.878 296.438C111.1 298.963 99.5681 311.307 97.9381 326.3C95.6941 346.932 111.693 364.386 131.743 364.386C136.617 364.386 141.244 363.342 145.432 361.479C147.6 360.515 149.922 359.956 152.293 359.956H159.392L159.534 440.937C159.534 446.144 163.781 450.365 169.021 450.365H376.635C381.875 450.365 385.98 443.787 385.98 438.58V364.977H377.576C375.634 364.977 373.715 365.36 371.915 366.084C368.295 367.539 364.347 368.354 360.202 368.354C342.404 368.354 328.058 353.661 328.773 335.814C329.403 320.089 342.988 298.658 358.785 297.562Z" fill="#E0E0E0"/>
<path d="M358.785 297.562C358.785 297.562 358.601 297.59 358.236 297.634C357.871 297.681 357.322 297.721 356.609 297.88C355.182 298.148 353.062 298.728 350.519 300.045C345.453 302.63 338.806 308.535 333.801 318.393C331.369 323.298 329.172 329.206 328.88 335.965C328.792 339.334 329.225 342.869 330.312 346.371C331.399 349.869 333.169 353.324 335.641 356.424C338.111 359.519 341.275 362.262 344.998 364.312C348.716 366.363 352.995 367.705 357.507 368.074C362.014 368.509 366.755 367.877 371.244 366.183C373.454 365.214 375.959 364.717 378.444 364.823C380.922 364.822 383.433 364.82 385.978 364.819H386.139V364.98C386.145 376.62 386.151 388.996 386.158 402.055C386.161 408.585 386.164 415.285 386.167 422.15C386.168 425.582 386.17 429.056 386.171 432.569C386.172 434.326 386.172 436.093 386.173 437.87C386.192 438.751 386.137 439.675 385.991 440.567C385.813 441.455 385.591 442.34 385.247 443.184C384.596 444.882 383.637 446.482 382.353 447.814C381.099 449.157 379.427 450.205 377.546 450.497C376.59 450.604 375.686 450.558 374.76 450.569C373.837 450.569 372.912 450.57 371.985 450.57C370.13 450.571 368.266 450.571 366.392 450.572C358.897 450.575 351.252 450.577 343.462 450.58C327.882 450.584 311.726 450.589 295.046 450.593C261.687 450.6 226.234 450.607 189.115 450.614C184.475 450.615 179.809 450.615 175.118 450.616C172.762 450.594 170.444 450.666 168.039 450.568C165.627 450.33 163.319 449.153 161.712 447.324C160.082 445.513 159.219 443.043 159.279 440.614C159.275 438.231 159.27 435.843 159.266 433.449C159.257 428.66 159.248 423.848 159.239 419.013C159.204 399.673 159.168 379.971 159.131 359.958L159.389 360.216C157.918 360.216 156.442 360.216 154.961 360.216C153.48 360.24 151.986 360.15 150.538 360.319C149.081 360.49 147.645 360.865 146.27 361.409C144.911 361.985 143.496 362.6 142.049 363.042C136.261 364.914 129.895 365.14 123.867 363.708C117.866 362.222 112.129 359.2 107.717 354.699C105.421 352.541 103.598 349.929 101.969 347.231C101.266 345.817 100.452 344.45 99.9441 342.944C99.6721 342.201 99.3371 341.478 99.1151 340.717L98.4901 338.421C96.6711 330.875 97.3511 322.74 100.597 315.738C103.792 308.72 109.408 302.904 116.189 299.431C119.575 297.678 123.258 296.561 127.004 296.007C130.757 295.495 134.58 295.587 138.283 296.272C140.134 296.616 141.955 297.108 143.72 297.746C144.602 298.066 145.474 298.414 146.323 298.813C147.183 299.208 147.988 299.607 148.861 299.904C152.312 301.266 156.085 300.769 159.768 300.862L159.511 301.119C159.512 286.8 159.513 272.658 159.514 258.713C159.515 251.741 159.516 244.818 159.516 237.947C159.55 236.237 159.406 234.511 159.721 232.77C160.024 231.047 160.743 229.407 161.772 228.004C163.809 225.175 167.125 223.325 170.584 223.129C197.647 223.119 223.836 223.11 248.986 223.101L248.752 223.366C248.622 222.322 248.497 221.321 248.372 220.322L248.37 220.307V220.292C248.371 218.431 248.036 216.579 247.442 214.825C247.151 213.943 246.766 213.108 246.397 212.234C246.039 211.364 245.718 210.48 245.426 209.588C244.27 206.017 243.694 202.287 243.694 198.584L243.844 195.815C243.879 195.355 243.873 194.892 243.94 194.436L244.164 193.074C244.334 192.171 244.414 191.25 244.659 190.367L245.392 187.722C245.497 187.276 245.657 186.849 245.834 186.428L246.336 185.157C246.666 184.308 246.986 183.457 247.44 182.669L248.702 180.264L250.195 178.007C252.288 175.09 254.691 172.381 257.534 170.246L258.569 169.41L259.677 168.68C260.422 168.204 261.148 167.7 261.904 167.25C263.481 166.468 264.996 165.562 266.659 165.003C269.887 163.639 273.331 162.966 276.743 162.587C278.462 162.513 280.175 162.332 281.88 162.506C282.732 162.563 283.586 162.578 284.43 162.67C285.271 162.798 286.11 162.925 286.948 163.052C293.598 164.355 299.777 167.448 304.609 171.882C309.441 176.299 313.056 181.906 314.859 187.973C316.754 194.012 316.909 200.426 315.595 206.361C314.933 209.328 313.865 212.182 312.554 214.836C311.957 216.178 311.507 217.578 311.246 219.007C310.963 220.438 310.96 221.878 310.972 223.337L310.786 223.152C328.242 223.096 344.596 223.043 359.75 222.995C363.539 222.983 367.252 222.972 370.889 222.96C371.798 222.957 372.703 222.954 373.602 222.952C374.5 222.943 375.395 222.941 376.3 223.006C378.097 223.178 379.823 223.781 381.325 224.7C384.363 226.52 386.37 229.725 386.816 233.058C387.026 234.738 386.906 236.376 386.935 237.999C386.932 239.621 386.929 241.224 386.927 242.806C386.875 268.116 386.834 288.237 386.805 302.389V302.464L386.73 302.465C384.276 302.498 381.994 302.612 379.859 302.568C377.722 302.413 375.814 301.803 374.159 301.076C370.894 299.527 368.061 298.566 365.745 298.092C363.43 297.611 361.669 297.536 360.511 297.529C359.931 297.523 359.498 297.54 359.211 297.554C358.928 297.561 358.785 297.562 358.785 297.562C358.785 297.562 359.352 297.493 360.515 297.486C361.675 297.48 363.44 297.542 365.765 298.012C368.089 298.474 370.94 299.429 374.21 300.967C375.857 301.684 377.757 302.283 379.872 302.43C381.987 302.467 384.282 302.348 386.731 302.309L386.657 302.385C386.658 288.233 386.66 268.112 386.661 242.802C386.662 241.22 386.662 239.618 386.663 237.995C386.633 236.378 386.747 234.715 386.54 233.094C386.101 229.844 384.14 226.721 381.175 224.951C379.709 224.057 378.027 223.472 376.276 223.306C375.404 223.245 374.509 223.247 373.608 223.257C372.708 223.261 371.804 223.265 370.895 223.269C367.258 223.285 363.545 223.3 359.756 223.317C344.602 223.381 328.248 223.449 310.793 223.522L310.609 223.523L310.607 223.337C310.593 221.894 310.595 220.397 310.883 218.94C311.149 217.48 311.607 216.051 312.214 214.683C313.526 212.018 314.568 209.221 315.224 206.277C316.52 200.409 316.361 194.059 314.482 188.091C312.695 182.094 309.116 176.553 304.336 172.189C299.555 167.808 293.444 164.756 286.874 163.472C286.046 163.347 285.217 163.222 284.386 163.096C283.551 163.006 282.706 162.992 281.865 162.936C280.179 162.763 278.487 162.945 276.788 163.018C273.417 163.395 270.014 164.06 266.827 165.411C265.184 165.963 263.689 166.861 262.13 167.633C261.383 168.077 260.666 168.577 259.931 169.047L258.836 169.769L257.815 170.596C255.007 172.706 252.636 175.384 250.57 178.266L249.096 180.495L247.852 182.871C247.403 183.649 247.088 184.49 246.763 185.328L246.268 186.583C246.094 186.999 245.936 187.42 245.833 187.86L245.111 190.472C244.87 191.344 244.792 192.254 244.624 193.145L244.403 194.49C244.337 194.94 244.343 195.397 244.309 195.851L244.162 198.585C244.164 202.241 244.734 205.922 245.876 209.446C246.164 210.326 246.481 211.198 246.835 212.057C247.194 212.906 247.594 213.774 247.892 214.676C248.501 216.474 248.847 218.376 248.847 220.293L248.845 220.264C248.97 221.263 249.095 222.264 249.226 223.308L249.259 223.573H248.992C223.853 223.59 197.675 223.608 170.624 223.627C167.309 223.815 164.134 225.59 162.183 228.3C161.197 229.644 160.509 231.213 160.22 232.863C159.919 234.5 160.056 236.231 160.024 237.949C160.025 244.82 160.025 251.743 160.026 258.715C160.027 272.66 160.028 286.802 160.03 301.121V301.378H159.772C157.927 301.378 156.079 301.378 154.228 301.378C152.344 301.377 150.466 301.022 148.693 300.391C147.806 300.09 146.941 299.663 146.111 299.282C145.276 298.89 144.417 298.547 143.548 298.232C141.809 297.604 140.015 297.12 138.192 296.781C134.544 296.106 130.776 296.016 127.078 296.521C123.388 297.068 119.765 298.167 116.43 299.894C109.754 303.314 104.219 309.045 101.074 315.956C97.8781 322.849 97.2091 330.866 99.0001 338.298L99.6161 340.559C99.8341 341.308 100.164 342.02 100.433 342.752C100.932 344.236 101.735 345.581 102.427 346.974C104.032 349.63 105.826 352.205 108.088 354.329C112.432 358.763 118.082 361.738 123.991 363.202C129.927 364.613 136.198 364.391 141.896 362.548C143.335 362.107 144.684 361.52 146.085 360.927C147.498 360.368 148.978 359.981 150.483 359.805C152 359.63 153.488 359.724 154.966 359.699C156.447 359.699 157.923 359.699 159.394 359.699H159.652V359.957C159.686 379.97 159.719 399.673 159.751 419.012C159.759 423.847 159.767 428.659 159.775 433.448C159.779 435.842 159.783 438.231 159.787 440.613C159.732 442.951 160.547 445.264 162.093 446.991C163.617 448.727 165.806 449.844 168.094 450.07C170.4 450.164 172.79 450.096 175.124 450.118C179.815 450.119 184.481 450.119 189.121 450.12C226.24 450.127 261.693 450.134 295.052 450.141C311.732 450.146 327.888 450.15 343.468 450.155C351.258 450.158 358.903 450.16 366.398 450.163C368.272 450.164 370.136 450.164 371.991 450.165C372.918 450.165 373.843 450.166 374.766 450.166C375.684 450.157 376.624 450.199 377.496 450.1C379.26 449.826 380.859 448.838 382.072 447.539C383.313 446.253 384.25 444.695 384.885 443.042C385.221 442.221 385.437 441.36 385.61 440.499C385.751 439.626 385.805 438.767 385.788 437.871C385.789 436.094 385.789 434.327 385.79 432.57C385.791 429.056 385.793 425.583 385.794 422.151C385.797 415.286 385.8 408.586 385.803 402.056C385.81 388.997 385.816 376.62 385.822 364.981L385.983 365.142C383.438 365.141 380.927 365.139 378.449 365.138C375.972 365.035 373.57 365.508 371.357 366.47C366.823 368.175 362.034 368.807 357.488 368.362C352.935 367.984 348.62 366.623 344.873 364.55C341.12 362.477 337.935 359.707 335.45 356.583C332.963 353.454 331.185 349.969 330.095 346.442C329.005 342.911 328.576 339.35 328.671 335.959C328.979 329.153 331.198 323.233 333.65 318.316C338.695 308.439 345.384 302.536 350.481 299.967C353.039 298.658 355.171 298.09 356.604 297.837C357.319 297.686 357.871 297.653 358.237 297.613C358.6 297.574 358.785 297.562 358.785 297.562Z" fill="#263238"/>
<path d="M630.759 300.334C625.726 300.334 620.949 301.412 616.624 303.335C615.109 304.009 613.519 304.485 611.892 304.726V233.554C611.892 228.315 607.645 224.067 602.405 224.067H528.35V232.471C528.35 234.413 528.736 236.332 529.464 238.132C530.928 241.752 531.747 245.7 531.747 249.845C531.747 267.644 516.964 281.989 499.007 281.274C483.184 280.644 470.018 267.858 468.916 252.061C468.527 246.494 469.618 241.231 471.801 236.578C472.776 234.499 473.339 232.256 473.339 229.959V224.067L398.311 223.829C391.877 223.829 386.662 229.045 386.662 235.479L386.59 301.486H381.475C380.895 301.486 380.305 301.47 379.717 301.427C373.385 296.805 365.587 294.071 357.147 294.071C335.977 294.071 318.816 311.233 318.816 332.403C318.816 353.573 335.977 370.734 357.147 370.734C364.071 370.734 370.56 368.889 376.166 365.677C377.184 365.457 378.223 365.337 379.272 365.337H385.836V439.007C385.836 445.441 391.051 450.657 397.485 450.657H602.405C607.644 450.657 611.892 446.41 611.892 441.17V366.16C613.155 366.475 614.385 366.931 615.566 367.506C621.835 370.556 629.125 371.808 636.814 370.494C652.073 367.887 663.98 355.141 665.663 339.66C667.982 318.357 651.462 300.334 630.759 300.334Z" fill="#F5F5F5"/>
<path d="M630.759 300.334C630.759 300.334 631.51 300.359 632.986 300.432C633.723 300.472 634.647 300.477 635.726 300.694C636.268 300.781 636.854 300.875 637.484 300.977C638.12 301.051 638.778 301.228 639.475 301.43C640.175 301.622 640.916 301.825 641.7 302.04C642.469 302.299 643.256 302.639 644.095 302.959C644.511 303.127 644.945 303.283 645.375 303.472C645.793 303.689 646.22 303.911 646.656 304.137C647.519 304.608 648.47 305.012 649.337 305.643C652.959 307.884 656.775 311.208 659.896 315.856C662.976 320.478 665.503 326.438 665.862 333.312C665.898 334.167 665.975 335.033 665.979 335.907C665.932 336.782 665.884 337.666 665.836 338.559C665.802 339.005 665.81 339.457 665.741 339.905C665.674 340.352 665.606 340.802 665.538 341.254C665.468 341.706 665.398 342.16 665.328 342.616C665.222 343.065 665.115 343.517 665.008 343.971C664.15 347.601 662.664 351.244 660.513 354.654C658.362 358.058 655.566 361.25 652.137 363.889C648.704 366.514 644.668 368.604 640.23 369.858C639.128 370.196 637.975 370.372 636.836 370.639C635.681 370.821 634.512 370.985 633.327 371.061C630.959 371.241 628.537 371.178 626.115 370.85C623.69 370.539 621.271 369.933 618.906 369.087C616.513 368.281 614.344 366.881 611.853 366.318L612.054 366.161C612.06 377.682 612.066 389.911 612.073 402.8C612.076 409.245 612.079 415.853 612.082 422.621C612.083 426.005 612.085 429.428 612.086 432.89C612.087 434.621 612.087 436.362 612.088 438.112C612.088 438.987 612.089 439.865 612.089 440.745C612.099 441.181 612.063 441.636 612.043 442.084C611.977 442.528 611.941 442.982 611.817 443.416C611.023 446.955 608.026 449.932 604.378 450.655C603.475 450.828 602.531 450.875 601.632 450.858C600.724 450.858 599.813 450.859 598.9 450.859C597.074 450.86 595.24 450.86 593.396 450.861C586.02 450.863 578.499 450.866 570.838 450.868C555.516 450.872 539.637 450.877 523.251 450.881C490.478 450.887 455.678 450.894 419.254 450.901C414.701 450.902 410.123 450.902 405.52 450.903C403.219 450.903 400.911 450.904 398.597 450.904C397.452 450.919 396.249 450.886 395.087 450.663C393.929 450.407 392.808 449.997 391.759 449.437C389.685 448.279 387.943 446.512 386.873 444.373C386.312 443.317 385.965 442.156 385.76 440.98C385.534 439.795 385.595 438.592 385.583 437.429C385.583 432.731 385.582 428.01 385.582 423.267C385.581 404.294 385.579 384.967 385.577 365.335L385.835 365.593C384.318 365.593 382.729 365.593 381.101 365.593C380.292 365.599 379.453 365.579 378.648 365.608C377.836 365.645 377.022 365.755 376.22 365.928L376.294 365.9C371.591 368.586 366.244 370.332 360.7 370.825C355.164 371.296 349.451 370.621 344.114 368.688C338.78 366.768 333.815 363.657 329.752 359.574C325.72 355.465 322.579 350.439 320.68 344.948C319.357 341.01 318.605 336.88 318.57 332.736C318.583 328.596 319.195 324.475 320.428 320.543C321.671 316.61 323.637 312.944 326.034 309.634C327.203 307.947 328.614 306.46 330.011 304.973L332.277 302.914C333.041 302.24 333.895 301.675 334.699 301.051C338.019 298.698 341.675 296.837 345.533 295.596C349.412 294.415 353.439 293.858 357.463 293.818C365.517 293.85 373.465 296.519 379.867 301.219L379.734 301.17C381.999 301.284 384.313 301.204 386.588 301.229L386.332 301.485C386.349 287.383 386.365 273.46 386.381 259.735C386.389 252.873 386.398 246.06 386.406 239.3L386.409 236.767C386.399 235.929 386.411 235.078 386.479 234.215C386.663 232.505 387.227 230.842 388.109 229.375C389.856 226.426 392.92 224.307 396.283 223.766C397.976 223.48 399.644 223.617 401.294 223.592C402.95 223.597 404.603 223.603 406.252 223.608C409.55 223.619 412.835 223.63 416.105 223.641C422.645 223.663 429.127 223.685 435.55 223.706C448.394 223.749 460.997 223.792 473.337 223.834L473.57 223.835V224.068C473.57 225.835 473.569 227.597 473.569 229.353C473.618 231.118 473.372 232.919 472.825 234.599C472.561 235.441 472.205 236.263 471.841 237.047C471.478 237.831 471.165 238.635 470.869 239.442C470.296 241.065 469.842 242.726 469.549 244.411C468.317 251.154 469.486 258.169 472.57 264.064C474.108 267.013 476.073 269.727 478.427 272.021C480.777 274.317 483.457 276.235 486.338 277.705C492.091 280.725 498.71 281.611 504.914 280.723C511.131 279.804 516.927 276.975 521.398 272.852C523.596 270.765 525.615 268.475 527.092 265.867C528.609 263.298 529.829 260.557 530.511 257.696C532.041 252.016 531.841 246.013 530.142 240.611C529.756 239.247 529.122 237.979 528.733 236.591C528.344 235.216 528.152 233.79 528.159 232.376C528.16 229.579 528.161 226.81 528.163 224.069V223.883H528.349C547.823 223.892 565.93 223.901 582.547 223.909C586.701 223.911 590.762 223.914 594.728 223.916C596.711 223.917 598.67 223.918 600.605 223.92C601.572 223.926 602.532 223.896 603.504 223.989C604.47 224.097 605.404 224.37 606.284 224.743C608.035 225.522 609.524 226.811 610.52 228.388C611.535 229.959 612.024 231.807 612.029 233.618C612.026 237.195 612.024 240.674 612.021 244.051C611.991 271.067 611.969 291.623 611.954 304.727L611.881 304.664C615.216 304.231 617.727 302.607 620.101 301.957C622.444 301.207 624.442 300.841 626.029 300.624C627.619 300.416 628.805 300.359 629.589 300.34C630.376 300.323 630.759 300.334 630.759 300.334C630.759 300.334 630.376 300.344 629.593 300.372C628.811 300.402 627.627 300.469 626.041 300.687C624.458 300.914 622.467 301.29 620.133 302.048C617.776 302.702 615.267 304.339 611.902 304.789L611.829 304.799V304.727C611.815 291.622 611.792 271.067 611.762 244.051C611.76 240.673 611.757 237.195 611.754 233.618C611.746 231.855 611.269 230.064 610.282 228.54C609.313 227.011 607.866 225.761 606.167 225.008C605.312 224.648 604.407 224.383 603.47 224.28C602.539 224.191 601.572 224.22 600.605 224.217C598.67 224.218 596.711 224.219 594.728 224.221C590.762 224.223 586.701 224.226 582.547 224.228C565.93 224.236 547.823 224.245 528.349 224.254L528.535 224.068C528.536 226.809 528.537 229.578 528.539 232.375C528.533 233.758 528.722 235.144 529.102 236.486C529.474 237.821 530.117 239.112 530.511 240.495C532.235 245.964 532.443 252.041 530.898 257.795C530.209 260.693 528.976 263.471 527.441 266.074C525.946 268.716 523.903 271.039 521.677 273.154C517.15 277.334 511.279 280.206 504.977 281.141C498.692 282.047 491.975 281.151 486.141 278.092C483.219 276.603 480.502 274.66 478.118 272.333C475.73 270.008 473.735 267.258 472.174 264.268C469.043 258.29 467.853 251.171 469.1 244.328C469.397 242.618 469.857 240.932 470.437 239.285C470.737 238.465 471.054 237.649 471.422 236.854C471.79 236.06 472.127 235.281 472.386 234.456C472.917 232.814 473.153 231.098 473.105 229.351C473.105 227.595 473.104 225.833 473.104 224.066L473.337 224.299C460.997 224.262 448.394 224.225 435.55 224.187C429.128 224.168 422.646 224.148 416.106 224.129C412.836 224.119 409.552 224.109 406.253 224.099C404.604 224.094 402.951 224.089 401.295 224.084C399.64 224.108 397.963 223.978 396.369 224.253C393.146 224.772 390.211 226.804 388.537 229.631C387.692 231.036 387.153 232.629 386.976 234.267C386.912 235.083 386.899 235.918 386.909 236.767L386.907 239.3C386.9 246.06 386.894 252.873 386.887 259.735C386.873 273.46 386.859 287.383 386.845 301.485V301.744L386.589 301.741C384.299 301.716 382.036 301.798 379.698 301.682L379.627 301.678L379.565 301.633C373.247 296.996 365.407 294.365 357.46 294.334C353.489 294.375 349.517 294.925 345.69 296.089C341.884 297.314 338.278 299.15 335.003 301.472C334.21 302.088 333.367 302.644 332.614 303.31L330.379 305.341C329.002 306.809 327.608 308.276 326.456 309.94C324.092 313.206 322.152 316.822 320.926 320.702C319.71 324.581 319.106 328.646 319.093 332.731C319.128 336.82 319.87 340.893 321.175 344.778C323.048 350.194 326.146 355.152 330.124 359.207C334.133 363.235 339.031 366.304 344.292 368.198C349.555 370.105 355.192 370.772 360.655 370.308C366.124 369.822 371.398 368.1 376.039 365.45L376.074 365.43L376.113 365.422C376.941 365.243 377.784 365.13 378.627 365.091C379.478 365.061 380.285 365.083 381.104 365.076C382.732 365.076 384.321 365.076 385.838 365.076H386.096V365.334C386.094 384.966 386.093 404.294 386.091 423.266C386.091 428.009 386.09 432.73 386.09 437.428C386.101 438.609 386.043 439.771 386.259 440.895C386.455 442.021 386.786 443.133 387.324 444.144C388.348 446.193 390.018 447.886 392.003 448.996C393.008 449.532 394.081 449.925 395.19 450.171C396.311 450.384 397.433 450.417 398.6 450.403C400.914 450.403 403.221 450.404 405.523 450.404C410.126 450.405 414.704 450.405 419.257 450.406C455.68 450.413 490.481 450.42 523.254 450.427C539.64 450.432 555.52 450.436 570.841 450.44C578.502 450.443 586.023 450.445 593.399 450.447C595.243 450.448 597.078 450.448 598.903 450.449C599.816 450.449 600.726 450.45 601.635 450.45C602.552 450.467 603.424 450.421 604.299 450.257C607.794 449.568 610.672 446.714 611.435 443.321C611.645 442.476 611.706 441.62 611.698 440.741C611.698 439.861 611.699 438.983 611.699 438.108C611.7 436.358 611.7 434.617 611.701 432.886C611.702 429.424 611.704 426.001 611.705 422.617C611.708 415.849 611.711 409.241 611.714 402.796C611.72 389.907 611.727 377.677 611.732 366.157V365.954L611.933 366C614.487 366.586 616.664 367.996 619.015 368.787C621.357 369.629 623.754 370.231 626.157 370.543C628.558 370.871 630.959 370.936 633.307 370.761C634.483 370.687 635.642 370.526 636.788 370.347C637.917 370.083 639.06 369.91 640.154 369.577C644.556 368.339 648.562 366.272 651.973 363.672C655.379 361.057 658.16 357.893 660.301 354.517C662.442 351.134 663.924 347.519 664.782 343.915C664.89 343.464 664.996 343.016 665.103 342.569C665.174 342.116 665.244 341.665 665.314 341.216C665.382 340.767 665.45 340.32 665.518 339.876C665.587 339.432 665.58 338.982 665.615 338.539C665.665 337.651 665.714 336.772 665.763 335.903C665.76 335.034 665.685 334.174 665.651 333.323C665.307 326.489 662.808 320.558 659.754 315.951C656.659 311.319 652.87 307.998 649.269 305.753C648.407 305.122 647.461 304.716 646.603 304.244C646.169 304.016 645.744 303.794 645.329 303.576C644.901 303.386 644.469 303.229 644.055 303.06C643.22 302.738 642.436 302.395 641.671 302.134C640.891 301.916 640.152 301.71 639.455 301.515C638.76 301.311 638.104 301.13 637.471 301.053C636.844 300.948 636.259 300.851 635.719 300.76C634.643 300.535 633.721 300.523 632.985 300.476C631.51 300.39 630.759 300.334 630.759 300.334Z" fill="#263238"/>
<path d="M381.045 313.465C381.045 313.465 384.408 311.731 387.378 312.382C390.348 313.033 401.132 320.064 401.132 320.064L409.821 318.441L414.942 342.975L381.045 357.062V313.465Z" fill="#AE7461"/>
<path d="M355.97 322.019C355.97 322.019 363.735 321.038 366.548 319.632C369.361 318.226 376.068 312.276 377.474 312.384C378.88 312.492 383.965 313.466 383.965 313.466L381.909 319.632C381.909 319.632 392.078 325.798 395.107 328.07C398.136 330.342 407.656 340.511 408.089 342.999C408.522 345.487 407.764 348.408 406.574 349.382C405.384 350.356 401.057 348.408 401.057 348.408C401.057 348.408 401.706 350.68 400.083 352.843C398.46 355.007 394.674 354.249 394.674 354.249C394.674 354.249 394.35 357.819 392.618 358.468C390.887 359.117 386.993 357.17 386.993 357.17C386.993 357.17 385.818 360.199 384.404 360.524C382.99 360.849 378.987 358.469 378.987 358.469C378.987 358.469 361.678 346.028 357.783 344.189C353.888 342.35 352.698 342.242 352.698 342.242L355.97 322.019Z" fill="#FFBE9D"/>
<path d="M386.995 357.171C386.917 357.168 386.868 356.866 386.685 356.411C386.505 355.955 386.199 355.343 385.815 354.683C385.044 353.364 384.352 352.308 384.476 352.217C384.582 352.136 385.466 353.057 386.266 354.423C386.663 355.105 386.938 355.785 387.039 356.308C387.144 356.836 387.06 357.177 386.995 357.171Z" fill="#EB996E"/>
<path d="M394.187 355.067C394.046 355.14 393.2 353.586 392.005 351.799C390.822 349.998 389.554 348.795 389.645 348.683C389.727 348.563 391.216 349.65 392.437 351.507C393.663 353.344 394.302 355.012 394.187 355.067Z" fill="#EB996E"/>
<path d="M401.132 348.823C400.979 348.861 400.496 346.989 399.3 344.97C398.124 342.939 396.727 341.603 396.835 341.488C396.91 341.381 398.521 342.592 399.749 344.707C400.994 346.812 401.262 348.81 401.132 348.823Z" fill="#EB996E"/>
<path d="M396.063 335.321C396.199 335.292 396.571 336.58 396.641 338.221C396.717 339.862 396.46 341.178 396.322 341.161C396.174 341.146 396.195 339.841 396.12 338.244C396.053 336.647 395.917 335.349 396.063 335.321Z" fill="#EB996E"/>
<path d="M370.875 325.581C370.875 325.581 373.58 316.926 374.553 315.845C375.527 314.763 384.573 312.382 384.573 312.382L387.377 319.632L385.37 321.755L381.043 321.471C381.045 321.47 378.34 328.61 370.875 325.581Z" fill="#AE7461"/>
<path d="M354.276 342.695C354.276 342.695 353.039 343.647 354.276 345.919C355.513 348.191 358.867 346.568 359.949 345.919C359.949 345.919 358.326 349.705 360.382 350.895C362.437 352.085 364.926 351.761 364.926 351.761C364.926 351.761 364.818 354.033 367.739 355.547C370.66 357.061 371.417 355.547 371.417 355.547C371.417 355.547 371.742 359.333 375.095 359.658C378.449 359.982 379.629 358.83 379.629 358.83L378.124 356.594C378.124 356.594 380.071 352.625 378.557 350.895C377.042 349.164 374.554 349.381 374.554 349.381C374.554 349.381 375.216 345.866 373.287 344.887C369.702 343.068 368.171 346.461 368.171 346.461C368.171 346.461 367.955 342.609 365.142 342.696C362.329 342.783 360.815 344.514 360.815 344.514L354.276 342.695Z" fill="#AE7461"/>
<path d="M368.171 346.461C368.298 346.524 367.767 347.842 366.881 349.346C365.997 350.852 365.102 351.955 364.986 351.875C364.865 351.793 365.559 350.571 366.433 349.082C367.308 347.594 368.04 346.395 368.171 346.461Z" fill="#6F4439"/>
<path d="M374.623 349.868C374.748 349.927 374.197 351.334 373.148 352.861C372.104 354.393 370.993 355.417 370.893 355.321C370.783 355.22 371.699 354.063 372.718 352.567C373.743 351.076 374.489 349.802 374.623 349.868Z" fill="#6F4439"/>
<path d="M307.614 390.693H291.204L287.003 450.367H303.456C306.256 441.278 313.258 393.918 313.258 393.918L307.614 390.693Z" fill="#263238"/>
<path d="M214.675 390.693C214.675 390.693 204.173 415.32 205.223 425.288C206.273 435.256 212.171 450.367 212.171 450.367H293.446C293.446 450.367 295.714 442.041 297.465 429.728C299.215 417.414 303.941 390.693 303.941 390.693H214.675Z" fill="#263238"/>
<path d="M322.078 153.027C319.333 149.563 315.94 146.227 315.238 141.864C314.591 137.852 316.346 133.459 314.547 129.816C312.334 125.333 305.972 124.457 303.213 120.288C301.877 118.269 301.56 115.711 300.242 113.681C297.995 110.221 293.382 109.107 289.264 109.344C285.145 109.581 281.127 110.861 277.003 110.947C271.345 111.066 265.615 108.943 260.12 110.298C254.057 111.793 250.145 116.903 246.009 121.832L240.652 127.521C239.554 128.486 238.399 129.367 237.142 130.096C234.943 131.371 232.457 132.204 230.539 133.872C226.435 137.441 226.412 144.691 230.494 148.286C226.084 149.46 222.748 153.842 222.789 158.405C222.812 160.916 223.737 163.315 224.37 165.744C225.004 168.173 225.326 170.859 224.215 173.11C223.103 175.361 220.087 176.795 217.962 175.457C218.576 178.74 220.761 181.692 223.722 183.236C222.487 184.389 220.799 185.043 219.109 185.024C223.165 195.987 235.338 202.232 247.01 202.851C258.683 203.47 270.07 199.576 281.11 195.734L312.937 189.058C315.727 188.557 317.036 185.257 317.131 182.423C317.225 179.589 316.648 176.609 317.785 174.011C319.343 170.45 323.651 168.725 325.273 165.192C327.117 161.176 324.822 156.491 322.078 153.027Z" fill="#263238"/>
<path d="M246.335 178.175C244.395 170.963 242.486 163.699 241.816 156.261C241.146 148.823 241.766 141.137 244.725 134.28C245.174 133.241 248.898 126.303 250.017 126.472C250.817 126.593 248.407 133.119 248.777 133.838C252.315 140.703 252.957 148.773 251.941 156.428C250.926 164.083 248.97 170.916 246.335 178.175Z" fill="#263238"/>
<path d="M247.066 149.68C247.422 130.953 258.617 115.551 277.327 116.425L279.052 116.606C296.405 118.436 309.45 133.279 309.022 150.723C308.624 166.953 307.975 184.88 306.958 193.503C304.853 211.353 286.683 212.248 286.683 212.248C286.643 212.246 286.194 241.734 286.194 241.734L243.65 212.255L247.066 149.68Z" fill="#FFBE9D"/>
<path d="M286.683 212.249C286.683 212.249 275.347 211.722 264.136 202.916C264.136 202.916 268.325 218.022 286.33 218.293L286.683 212.249Z" fill="#EB996E"/>
<path d="M302.828 164.575C302.734 165.928 301.51 166.964 300.095 166.891C298.683 166.818 297.612 165.665 297.707 164.312C297.801 162.959 299.025 161.922 300.437 161.994C301.851 162.067 302.922 163.223 302.828 164.575Z" fill="#263238"/>
<path d="M304.42 157.739C304.069 158.038 302.286 156.403 299.538 156.121C296.798 155.8 294.633 157 294.371 156.632C294.24 156.468 294.626 155.901 295.571 155.354C296.502 154.809 298.041 154.345 299.751 154.533C301.461 154.723 302.834 155.504 303.593 156.236C304.368 156.974 304.591 157.606 304.42 157.739Z" fill="#263238"/>
<path d="M277.971 164.575C277.877 165.928 276.653 166.964 275.238 166.891C273.826 166.818 272.755 165.666 272.85 164.312C272.945 162.96 274.168 161.922 275.581 161.995C276.995 162.067 278.065 163.223 277.971 164.575Z" fill="#263238"/>
<path d="M277.398 156.014C277.046 156.313 275.26 154.678 272.515 154.396C269.775 154.075 267.61 155.275 267.347 154.907C267.217 154.743 267.599 154.176 268.548 153.63C269.479 153.084 271.018 152.621 272.728 152.808C274.438 152.998 275.81 153.78 276.57 154.511C277.344 155.25 277.568 155.882 277.398 156.014Z" fill="#263238"/>
<path d="M285.026 178.158C285.03 178.001 286.768 177.885 289.572 177.823C290.281 177.825 290.96 177.755 291.128 177.289C291.347 176.8 291.133 176.013 290.879 175.161C290.398 173.394 289.896 171.543 289.368 169.602C287.289 161.695 285.863 155.223 286.182 155.141C286.502 155.06 288.446 161.404 290.524 169.312C291.02 171.261 291.494 173.117 291.945 174.894C292.126 175.719 292.487 176.671 292.019 177.685C291.775 178.189 291.22 178.515 290.758 178.589C290.294 178.679 289.899 178.645 289.549 178.629C286.748 178.485 285.02 178.316 285.026 178.158Z" fill="#263238"/>
<path d="M276.742 179.206C277.192 179.227 276.883 182.209 279.212 184.594C281.535 186.985 284.749 186.985 284.728 187.405C284.75 187.596 283.959 187.91 282.614 187.805C281.293 187.711 279.416 187.086 277.991 185.627C276.571 184.165 276.085 182.363 276.112 181.129C276.13 179.871 276.54 179.167 276.742 179.206Z" fill="#263238"/>
<path d="M278.422 144.852C278.072 145.571 275.367 144.927 272.104 144.976C268.84 144.959 266.141 145.628 265.784 144.914C265.627 144.573 266.155 143.919 267.281 143.306C268.398 142.694 270.132 142.183 272.09 142.171C274.047 142.164 275.786 142.657 276.909 143.258C278.042 143.861 278.576 144.51 278.422 144.852Z" fill="#263238"/>
<path d="M304.247 148.489C303.698 149.062 301.874 148.215 299.602 147.944C297.34 147.594 295.356 147.921 294.981 147.221C294.82 146.884 295.189 146.291 296.093 145.789C296.984 145.288 298.424 144.954 299.982 145.166C301.54 145.38 302.835 146.088 303.56 146.811C304.296 147.537 304.492 148.207 304.247 148.489Z" fill="#263238"/>
<path d="M247.131 163.069C246.84 162.905 235.233 158.142 234.335 170.403C233.438 182.663 245.932 181.036 245.979 180.686C246.025 180.335 247.131 163.069 247.131 163.069Z" fill="#FFBE9D"/>
<path d="M242.573 175.766C242.522 175.723 242.348 175.899 241.975 176.039C241.611 176.174 240.997 176.241 240.376 175.955C239.115 175.385 238.175 173.249 238.277 171.034C238.328 169.916 238.639 168.871 239.099 168.02C239.539 167.151 240.165 166.566 240.826 166.498C241.486 166.396 241.919 166.82 242.044 167.176C242.183 167.531 242.087 167.77 242.151 167.796C242.183 167.83 242.429 167.61 242.368 167.096C242.335 166.849 242.212 166.549 241.942 166.292C241.665 166.032 241.241 165.877 240.784 165.893C239.834 165.889 238.919 166.696 238.414 167.63C237.856 168.565 237.48 169.738 237.423 170.994C237.321 173.47 238.416 175.875 240.151 176.517C240.997 176.805 241.735 176.598 242.128 176.336C242.53 176.061 242.614 175.792 242.573 175.766Z" fill="#EB996E"/>
<path d="M302.393 129.889C304.449 128.922 298.904 122.108 294.168 119.58C287.009 115.76 275.881 112.975 268.957 114.465C260.622 116.259 253.558 119.895 248.969 127.081C244.379 134.267 242.276 142.849 241.967 151.369C241.873 153.969 241.968 156.692 243.213 158.976C244.752 161.799 247.93 163.719 247.545 167.451C247.404 168.815 247.706 170.221 248.579 171.278C250.669 173.811 253.56 171.744 254.967 169.575C257.973 164.943 258.643 159.226 259.234 153.736C259.655 149.834 260.07 145.848 259.209 142.019C258.741 139.936 257.901 137.942 257.548 135.835C257.195 133.728 257.41 131.378 258.811 129.767C259.039 129.505 259.408 129.18 259.872 128.823C263.542 126.001 268.464 125.403 272.721 127.224C279.472 130.113 291.035 134.522 294.267 132.376C298.917 129.288 300.119 127.157 300.119 127.157L302.393 129.889Z" fill="#263238"/>
<path d="M269.705 112.842C276.591 111.021 284.259 111.634 290.358 115.313C293.595 117.266 296.442 120.238 297.23 123.936C298.018 127.634 296.179 132.004 292.593 133.202L292.343 133.338C286.996 134.763 283.639 133.843 278.536 131.701C274.243 129.898 270.512 126.937 266.21 125.155C261.637 123.261 256.49 122.779 251.645 123.791C256.68 118.754 262.819 114.662 269.705 112.842Z" fill="#263238"/>
<path d="M272.808 110.712C272.813 110.679 273.257 110.715 274.056 110.836C274.849 110.985 275.997 111.235 277.358 111.735C278.717 112.233 280.285 112.985 281.876 114.064C283.461 115.138 285.085 116.549 286.377 118.374C287.681 120.204 288.392 122.242 288.854 124.095C289.308 125.959 289.507 127.675 289.608 129.113C289.71 130.552 289.713 131.719 289.698 132.523C289.682 133.328 289.642 133.772 289.609 133.772C289.571 133.772 289.542 133.328 289.495 132.527C289.448 131.726 289.388 130.568 289.241 129.145C289.094 127.724 288.859 126.035 288.388 124.213C287.911 122.402 287.202 120.427 285.951 118.675C284.707 116.917 283.137 115.53 281.602 114.46C280.063 113.385 278.543 112.613 277.223 112.079C274.573 111.019 272.788 110.812 272.808 110.712Z" fill="#45644B"/>
<path d="M284.098 110.031C284.109 109.997 284.483 110.102 285.157 110.324C285.487 110.451 285.922 110.54 286.368 110.777C286.838 111.015 287.349 111.274 287.901 111.554C290.084 112.831 292.779 115.397 294.261 119.034C294.666 119.925 294.906 120.848 295.163 121.731C295.331 122.635 295.525 123.502 295.563 124.348C295.672 125.187 295.609 125.993 295.61 126.742C295.517 127.486 295.488 128.189 295.329 128.808C295.183 129.43 295.074 129.996 294.874 130.465C294.693 130.938 294.572 131.357 294.381 131.663C294.044 132.291 293.844 132.625 293.813 132.608C293.706 132.558 294.553 131.206 294.967 128.742C295.1 128.135 295.106 127.446 295.179 126.722C295.158 125.991 295.205 125.208 295.085 124.393C295.036 123.571 294.835 122.73 294.667 121.853C294.41 120.997 294.174 120.101 293.781 119.237C292.342 115.71 289.789 113.199 287.707 111.868C287.179 111.57 286.691 111.294 286.242 111.041C285.816 110.783 285.399 110.668 285.084 110.514C284.441 110.237 284.087 110.066 284.098 110.031Z" fill="#45644B"/>
<path d="M292.096 238.773C292.096 240.456 300.53 277.499 303.758 286.598C306.986 295.697 317.208 386.943 315.863 393.442C314.518 399.941 311.021 399.681 311.021 399.681C311.021 399.681 228.438 394.482 219.561 395.262C210.684 396.042 206.918 395.782 204.766 385.643C202.614 375.504 204.83 322.812 202.947 310.074C201.064 297.336 201.048 291.161 200.32 272.236C199.689 255.834 203.421 242.677 211.222 233.182C219.023 223.687 236.291 214.086 236.291 214.086L242.416 205.153L285.761 228.078L286.752 222.86L289.382 230.983L292.096 238.773Z" fill="#45644B"/>
<g opacity="0.3">
<path d="M310.727 351.677C310.005 349.837 307.664 349.374 305.699 349.156C287.334 347.119 268.217 342.535 254.804 329.826C249.556 324.854 245.418 318.846 241.43 312.817C232.713 299.636 224.518 286.119 216.326 272.606L209.965 275.012C213.867 294.092 217.707 307.906 224.06 323.545C230.421 339.202 235.348 354.358 251.452 359.481C261.862 362.792 281.632 360.254 292.523 359.401C297.07 359.045 301.648 358.605 306.014 357.287C307.334 356.889 308.671 356.386 309.665 355.43C310.659 354.474 311.23 352.96 310.727 351.677Z" fill="black"/>
</g>
<path d="M207.725 270.024C208.2 270.87 244.953 349.367 261.362 352.595C277.771 355.823 328.768 356.577 338.721 354.694C348.674 352.811 358.412 351.058 358.412 351.058C358.412 351.058 365.618 333.94 359.04 319.356L345.342 319.789C345.342 319.789 307.254 317.735 301.874 316.263C296.494 314.792 291.846 309.746 287.004 310.015L258.029 242.585C258.029 242.585 239.199 225.1 225.749 230.48C212.298 235.861 203.784 263.013 207.725 270.024Z" fill="#45644B"/>
<path d="M346.396 353.779C346.362 353.768 346.461 353.298 346.668 352.46C346.885 351.625 347.156 350.403 347.441 348.889C347.734 347.376 347.986 345.556 348.168 343.529C348.326 341.499 348.4 339.26 348.311 336.913C348.108 332.213 347.272 328.016 346.447 325.048C346.037 323.563 345.666 322.368 345.381 321.553C345.105 320.734 344.968 320.274 345.001 320.261C345.034 320.247 345.235 320.682 345.571 321.483C345.916 322.279 346.342 323.462 346.801 324.946C347.723 327.909 348.627 332.142 348.832 336.892C348.922 339.264 348.833 341.527 348.647 343.573C348.437 345.618 348.144 347.448 347.803 348.963C347.469 350.479 347.142 351.694 346.864 352.516C346.595 353.34 346.43 353.79 346.396 353.779Z" fill="#263238"/>
<path d="M258.028 242.586C258.028 242.586 258.223 242.988 258.575 243.781C258.929 244.588 259.446 245.766 260.121 247.304C261.471 250.413 263.449 254.968 265.983 260.804C271.038 272.514 278.308 289.355 287.192 309.934L286.992 309.81C289.28 309.703 291.429 310.698 293.416 311.777C295.415 312.879 297.351 314.16 299.475 315.13C301.573 316.196 303.955 316.443 306.368 316.734C308.781 317.02 311.244 317.231 313.741 317.448C323.736 318.274 334.327 318.925 345.355 319.54H345.334C349.642 319.402 354.303 319.253 359.032 319.102L359.204 319.097L359.272 319.252C361.385 324.088 362.27 329.527 362.015 334.973C361.781 340.424 360.665 345.909 358.652 351.159L358.603 351.287L358.458 351.314C355.699 351.824 352.732 352.371 349.749 352.923C346.551 353.513 343.373 354.1 340.215 354.683C337.053 355.299 333.829 355.536 330.671 355.666C324.334 355.955 318.089 355.979 311.954 355.947C305.819 355.913 299.793 355.771 293.895 355.552C287.997 355.344 282.226 355.038 276.602 354.609C273.79 354.408 271.017 354.137 268.284 353.838C265.551 353.477 262.868 353.234 260.229 352.5C258.942 352.02 257.801 351.284 256.741 350.487C255.678 349.689 254.705 348.802 253.778 347.889C251.921 346.064 250.26 344.115 248.692 342.154C242.478 334.256 237.607 326.253 233.253 318.929C224.638 304.209 218.42 291.881 214.151 283.36C212.028 279.092 210.421 275.758 209.342 273.492C208.264 271.226 207.724 270.023 207.724 270.023C207.724 270.023 207.887 270.31 208.173 270.886C208.463 271.474 208.885 272.329 209.436 273.446C210.561 275.703 212.21 279.011 214.332 283.268C218.655 291.759 224.922 304.058 233.57 318.741C237.939 326.044 242.826 334.029 249.029 341.883C250.593 343.832 252.249 345.767 254.09 347.57C255.008 348.472 255.971 349.346 257.013 350.126C258.052 350.905 259.165 351.617 260.385 352.069C262.884 352.76 265.636 353.022 268.337 353.371C271.062 353.665 273.83 353.932 276.638 354.129C282.253 354.551 288.019 354.851 293.912 355.054C299.805 355.267 305.826 355.405 311.956 355.435C318.085 355.463 324.326 355.436 330.645 355.146C333.812 355.013 336.972 354.782 340.118 354.17C343.276 353.587 346.456 352.999 349.654 352.409C352.638 351.858 355.606 351.31 358.366 350.801L358.172 350.956C360.151 345.795 361.268 340.331 361.498 334.951C361.753 329.566 360.878 324.211 358.808 319.459L359.048 319.608C354.319 319.756 349.658 319.901 345.35 320.036H345.339L345.329 320.035C334.296 319.411 323.706 318.748 313.702 317.906C311.202 317.685 308.737 317.47 306.315 317.179C305.103 317.041 303.904 316.885 302.712 316.659C301.504 316.477 300.374 316.007 299.292 315.526C297.127 314.532 295.188 313.241 293.21 312.146C291.246 311.071 289.16 310.119 287.015 310.217L286.87 310.224L286.814 310.093C277.999 289.485 270.785 272.619 265.77 260.892C263.28 255.037 261.337 250.467 260.01 247.348C259.359 245.8 258.86 244.614 258.519 243.802C258.185 243.004 258.028 242.586 258.028 242.586Z" fill="#263238"/>
<path d="M254.189 237.292C254.154 237.324 253.677 236.819 252.763 235.972C251.852 235.122 250.45 233.974 248.559 232.802C246.673 231.627 244.256 230.489 241.424 229.713C238.598 228.933 235.345 228.569 231.976 228.885C228.61 229.241 225.493 230.242 222.877 231.567C220.254 232.889 218.11 234.483 216.494 236.008C214.873 237.53 213.725 238.933 213.001 239.947C212.272 240.959 211.905 241.547 211.864 241.523C211.849 241.514 211.925 241.358 212.086 241.07C212.256 240.787 212.472 240.346 212.834 239.832C213.513 238.775 214.629 237.32 216.24 235.742C217.846 234.162 220.001 232.509 222.659 231.14C225.31 229.768 228.486 228.731 231.924 228.368C235.365 228.044 238.683 228.432 241.552 229.251C244.428 230.067 246.868 231.26 248.755 232.491C250.647 233.719 252.028 234.924 252.903 235.826C253.359 236.258 253.659 236.649 253.881 236.892C254.096 237.143 254.202 237.28 254.189 237.292Z" fill="#263238"/>
<path d="M286.892 310.074C287.027 310.124 286.197 312.674 285.038 315.768C283.879 318.863 282.831 321.331 282.696 321.28C282.561 321.23 283.391 318.68 284.55 315.585C285.709 312.492 286.757 310.024 286.892 310.074Z" fill="#263238"/>
<path d="M353.468 323.004C353.468 322.975 353.609 322.935 353.846 323.02C354.081 323.102 354.383 323.342 354.583 323.741C354.772 324.118 354.907 324.744 354.546 325.299C354.206 325.813 353.56 326.207 352.807 326.102C352.041 325.959 351.594 325.295 351.497 324.705C351.392 324.087 351.648 323.525 351.997 323.228C352.354 322.918 352.751 322.886 352.982 322.906C353.222 322.929 353.34 322.992 353.335 323.024C353.352 323.124 352.752 322.988 352.253 323.493C352.023 323.743 351.868 324.176 351.969 324.614C352.059 325.05 352.419 325.51 352.895 325.589C353.374 325.667 353.899 325.386 354.148 325.032C354.411 324.684 354.364 324.224 354.246 323.887C353.988 323.171 353.448 323.071 353.468 323.004Z" fill="#263238"/>
<path d="M286.797 230.688C286.785 230.708 286.443 230.53 285.81 230.177C285.129 229.788 284.215 229.266 283.075 228.614L283.267 228.53C282.727 231.263 282.203 235.285 281.286 240.105L281.225 240.425L280.946 240.249C276.922 237.713 272.094 234.814 266.943 231.701C263.103 229.402 259.513 227.081 256.206 225.076C252.882 223.087 249.845 221.365 247.288 219.931C244.767 218.529 242.708 217.383 241.219 216.555C240.542 216.174 239.996 215.867 239.573 215.629C239.199 215.413 239.006 215.293 239.014 215.277C239.022 215.261 239.231 215.35 239.622 215.536C240.057 215.752 240.619 216.03 241.315 216.376C242.778 217.119 244.884 218.215 247.466 219.608C250.048 221.002 253.106 222.693 256.452 224.663C259.765 226.693 263.398 228.918 267.213 231.255C272.361 234.367 277.182 237.292 281.186 239.869L280.846 240.013C281.804 235.23 282.395 231.204 283.014 228.477L283.055 228.298L283.207 228.393C284.321 229.088 285.214 229.645 285.879 230.061C286.49 230.451 286.809 230.668 286.797 230.688Z" fill="#263238"/>
<g opacity="0.3">
<path d="M245.106 218.514C252.646 224.132 260.186 229.75 267.725 235.368C272.702 239.076 277.798 242.847 283.707 244.744C283.598 239.504 283.489 234.264 283.38 229.025L281.065 240.059L245.106 218.514Z" fill="black"/>
</g>
<path d="M478.029 139.779C474.091 140.306 469.987 137.485 469.068 133.62C468.148 129.755 470.542 125.389 474.294 124.085C471.791 121.617 471.096 117.504 472.65 114.351C474.204 111.198 477.889 109.243 481.371 109.725C481.448 106.255 483.456 102.891 486.473 101.175C489.49 99.46 493.408 99.455 496.429 101.163C500.197 97.803 506.374 97.56 510.395 100.613C513.753 99.925 517.462 101.649 519.102 104.658C520.742 107.667 520.18 111.719 517.783 114.168" fill="#263238"/>
<path d="M476.874 140.939C477.95 123.044 492.589 108.979 510.512 108.615L512.293 108.579C531.519 109.31 541.639 126.046 540.377 145.245L541.52 213.74L494.802 230.51L494.394 205.843C494.394 205.843 475.875 203.349 475.271 184.896C474.979 175.983 475.872 157.582 476.874 140.939Z" fill="#AE7461"/>
<path d="M494.241 205.818C494.241 205.818 506.042 206.287 518.282 198.247C518.282 198.247 512.864 211.646 494.413 210.359L494.241 205.818Z" fill="#6F4439"/>
<path d="M482.058 157.628C482.037 159.021 483.199 160.187 484.654 160.236C486.106 160.284 487.302 159.197 487.323 157.804C487.344 156.411 486.182 155.243 484.73 155.194C483.275 155.146 482.079 156.235 482.058 157.628Z" fill="#263238"/>
<path d="M481.025 149.888C481.359 150.225 483.325 148.706 486.162 148.656C488.995 148.565 491.106 149.982 491.406 149.629C491.554 149.472 491.209 148.858 490.289 148.217C489.383 147.578 487.849 146.97 486.081 147.013C484.315 147.059 482.842 147.74 482.001 148.423C481.143 149.11 480.861 149.738 481.025 149.888Z" fill="#263238"/>
<path d="M507.901 157.628C507.88 159.021 509.043 160.187 510.497 160.235C511.949 160.284 513.145 159.197 513.166 157.803C513.187 156.411 512.024 155.243 510.572 155.194C509.118 155.145 507.921 156.235 507.901 157.628Z" fill="#263238"/>
<path d="M508.917 149.849C509.251 150.186 511.22 148.668 514.055 148.618C516.887 148.527 518.999 149.944 519.299 149.59C519.447 149.433 519.105 148.82 518.181 148.178C517.276 147.539 515.741 146.931 513.974 146.974C512.208 147.02 510.734 147.701 509.893 148.384C509.038 149.071 508.753 149.699 508.917 149.849Z" fill="#263238"/>
<path d="M499.051 171.095C499.061 170.933 497.292 170.664 494.428 170.357C493.702 170.297 493.014 170.167 492.882 169.675C492.701 169.155 492.988 168.369 493.322 167.518C493.967 165.752 494.642 163.9 495.351 161.959C498.166 154.046 500.187 147.546 499.868 147.435C499.548 147.325 497.008 153.649 494.193 161.562C493.516 163.513 492.869 165.373 492.254 167.152C491.997 167.981 491.544 168.924 491.936 170.002C492.142 170.539 492.682 170.922 493.148 171.037C493.615 171.169 494.023 171.169 494.381 171.183C497.26 171.279 499.043 171.255 499.051 171.095Z" fill="#263238"/>
<path d="M507.86 140.212C508.249 140.923 510.663 140.094 513.655 139.937C516.642 139.712 519.175 140.224 519.434 139.471C519.545 139.113 519 138.478 517.91 137.924C516.829 137.37 515.193 136.958 513.4 137.071C511.609 137.188 510.064 137.803 509.093 138.489C508.113 139.174 507.686 139.872 507.86 140.212Z" fill="#263238"/>
<path d="M480.477 139.855C481.088 140.487 483.415 139.77 486.23 139.682C489.041 139.511 491.438 140.009 491.972 139.324C492.206 138.992 491.818 138.354 490.764 137.766C489.726 137.179 487.998 136.717 486.065 136.806C484.132 136.897 482.467 137.515 481.501 138.194C480.52 138.876 480.206 139.546 480.477 139.855Z" fill="#263238"/>
<path d="M478.476 132.438C478.476 132.438 483.109 120.78 488.628 117.969C495.309 114.566 498.365 121.913 504.758 119.985C511.152 118.057 517.529 114.792 524.202 119.629C531.506 124.923 528.213 128.809 528.824 136.99C531.302 170.156 537.556 179.422 538.963 163.748C539.117 162.031 543.844 160.571 544.402 153.318C545.125 143.912 545.253 132.507 543.023 125.888C541.142 120.309 537.862 116.495 532.034 112.335C522.834 105.768 510.383 105.877 501.947 106.899C493.512 107.921 477.411 117.98 478.476 132.438Z" fill="#263238"/>
<path d="M537.777 163.269C537.835 160.418 540.244 158.119 543.088 158.331C546.537 158.588 550.407 160.465 550.325 167.583C550.179 180.21 537.532 177.459 537.514 177.096C537.503 176.85 537.669 168.552 537.777 163.269Z" fill="#AE7461"/>
<path d="M540.317 172.377C540.373 172.338 540.536 172.534 540.905 172.708C541.265 172.878 541.887 173 542.549 172.761C543.889 172.287 545.036 170.182 545.124 167.907C545.169 166.759 544.941 165.662 544.544 164.751C544.169 163.823 543.58 163.171 542.909 163.044C542.242 162.881 541.762 163.278 541.604 163.632C541.431 163.983 541.508 164.236 541.441 164.257C541.405 164.288 541.173 164.042 541.28 163.522C541.335 163.272 541.487 162.976 541.786 162.737C542.092 162.494 542.539 162.373 543.006 162.43C543.979 162.508 544.845 163.414 545.281 164.414C545.771 165.419 546.054 166.652 546.003 167.942C545.892 170.486 544.563 172.852 542.731 173.358C541.84 173.579 541.102 173.303 540.723 173.001C540.336 172.682 540.273 172.399 540.317 172.377Z" fill="#6F4439"/>
<path d="M537.033 138.825C535.417 139.977 533.709 141.166 531.738 141.402C529.767 141.638 527.486 140.55 527.113 138.6C526.946 137.725 527.139 136.701 526.548 136.034C525.842 135.238 524.576 135.518 523.521 135.651C519.86 136.115 516.05 133.596 515.043 130.046C514.136 131.466 511.951 131.45 510.516 130.566C509.081 129.682 508.139 128.207 507.005 126.96C505.871 125.714 504.293 124.61 502.629 124.881C501.699 125.032 500.837 125.606 499.897 125.542C498.237 125.428 497.388 123.505 497.104 121.865C496.82 120.225 496.586 118.31 495.164 117.445C493.847 116.643 492.171 117.156 490.65 117.412C489.129 117.668 487.152 117.35 486.731 115.866C486.51 115.088 486.829 114.258 487.249 113.566C489.151 110.433 493.408 108.971 496.833 110.276C497.983 106.081 501.816 102.757 506.132 102.213C510.448 101.668 514.987 103.937 517.142 107.715C519.76 105.241 523.614 104.146 527.142 104.876C530.669 105.605 533.774 108.138 535.196 111.448C538.249 110.578 541.772 111.694 543.768 114.163C545.763 116.632 546.116 120.311 544.625 123.114C546.92 124.364 548.907 126.578 549.008 129.189C549.108 131.8 546.617 134.454 544.082 133.818C545.142 135.831 544.369 138.608 542.422 139.784C540.475 140.96 537.657 140.352 536.369 138.478" fill="#263238"/>
<path d="M495.973 114.008C495.963 114.009 495.965 114.087 495.981 114.239C496.001 114.39 496.015 114.619 496.075 114.911C496.203 115.491 496.455 116.349 497.041 117.324C497.63 118.283 498.536 119.387 499.9 120.25C501.236 121.124 503.059 121.772 505.099 121.619L504.879 121.344C504.509 122.431 504.643 123.724 505.203 124.823C505.735 125.941 506.557 126.925 507.426 127.882C507.87 128.341 508.258 128.884 508.868 129.301C509.46 129.702 510.164 129.927 510.883 130.002C512.31 130.155 513.907 129.682 514.915 128.464L514.44 128.339C514.812 130.841 516.29 133.322 518.588 134.806C519.805 135.649 521.3 136.148 522.759 136.079C524.22 136.035 525.568 135.579 526.824 135.1L526.484 134.958C527.194 136.513 528.264 137.83 529.55 138.792C530.812 139.753 532.48 140.298 533.971 139.899C536.937 139.208 538.862 136.691 539.212 134.35L538.929 134.489C540.423 135.264 542.011 135.309 543.278 135.038C544.563 134.776 545.564 134.195 546.275 133.628C546.988 133.05 547.404 132.463 547.654 132.057C547.882 131.636 547.975 131.404 547.961 131.398C547.896 131.347 547.562 132.366 546.145 133.461C545.437 133.984 544.457 134.516 543.22 134.738C542 134.972 540.495 134.894 539.115 134.15L538.876 134.021L538.832 134.289C538.476 136.473 536.62 138.823 533.87 139.432C532.519 139.778 531.053 139.29 529.857 138.381C528.655 137.473 527.635 136.204 526.976 134.742L526.872 134.51L526.636 134.6C525.399 135.068 524.097 135.496 522.747 135.533C521.397 135.59 520.055 135.145 518.895 134.347C516.724 132.943 515.337 130.622 514.973 128.253L514.882 127.658L514.498 128.128C513.648 129.17 512.219 129.62 510.937 129.485C510.293 129.421 509.668 129.224 509.151 128.878C508.647 128.547 508.242 128.011 507.792 127.548C506.925 126.608 506.126 125.661 505.62 124.621C505.087 123.594 504.966 122.457 505.281 121.473L505.378 121.17L505.061 121.198C503.139 121.367 501.385 120.782 500.081 119.964C498.75 119.158 497.846 118.112 497.243 117.197C496.052 115.315 496.062 113.977 495.973 114.008Z" fill="#45644B"/>
<path d="M508.829 172.071C508.378 172.124 508.899 175.1 506.726 177.662C504.559 180.23 501.329 180.456 501.379 180.876C501.371 181.07 502.187 181.329 503.533 181.129C504.854 180.942 506.697 180.18 508.026 178.614C509.35 177.044 509.712 175.198 509.598 173.96C509.492 172.696 509.029 172.018 508.829 172.071Z" fill="#263238"/>
<path d="M405.711 315.678C407.311 315.038 460.16 308.688 460.16 308.688L481.603 290.535L479.591 343.088L412.111 349.594L405.711 315.678Z" fill="#05A75E"/>
<path opacity="0.3" d="M472.122 298.561C471.479 298.882 466.183 303.589 466.183 303.589L467.798 344.057L472.122 298.561Z" fill="black"/>
<path d="M562.164 393.731H472.899C472.899 393.731 477.625 418.918 479.375 430.525C481.125 442.131 483.683 450.367 483.683 450.367H564.53C564.53 450.367 570.565 435.736 571.616 426.34C572.665 416.944 562.164 393.731 562.164 393.731Z" fill="#263238"/>
<path d="M466.247 396.771C466.247 396.771 463.753 425.482 466.247 450.367H497.168V427.438L466.247 396.771Z" fill="#263238"/>
<path d="M483.426 256.036L493.046 234.97L494.241 221.958C494.241 221.958 512.688 210.364 521.439 205.988C530.19 201.612 541.98 197.651 541.98 197.651V209.928L483.426 256.036Z" fill="#B9FAB4"/>
<path d="M563.834 363.628C563.834 363.628 569.059 293.41 569.413 288.192C569.413 288.192 572.499 250.674 565.837 236.387C559.175 222.101 544.268 209.544 544.268 209.544L542.896 202.044L513.778 220.396L500.318 232.103C500.318 232.103 492.678 240.169 487.618 247.905C483.797 253.191 479.549 259.992 477.659 268.544C476.968 271.67 468.957 309.049 468.718 335.105C468.718 335.105 467.487 357.835 466.174 370.711C464.549 386.647 462.073 422.976 462.611 444.5L556.964 441.618C580.281 438.061 576.18 435.743 576.18 435.743L563.834 363.628Z" fill="#05A75E"/>
<path d="M541.98 209.93C541.98 209.93 541.761 210.043 541.326 210.228C540.866 210.42 540.225 210.688 539.401 211.033C538.578 211.429 537.578 211.952 536.403 212.562C535.276 213.26 533.932 213.981 532.54 214.973C526.88 218.771 519.411 225.208 511.809 234.134L511.755 234.197L511.677 234.211C508.804 234.739 505.768 235.298 502.624 235.876L502.819 235.65C502.677 239.856 502.528 244.27 502.374 248.838L502.371 248.941L502.293 249.015C497.759 253.308 493.153 258.167 488.982 263.606C487.29 265.835 485.731 268.126 484.418 270.504L483.925 271.393L483.548 272.322C483.291 272.936 483.046 273.554 482.865 274.205C482.461 275.483 482.063 276.752 481.734 278.034C480.337 283.133 479.185 288.11 478.105 292.852C475.956 302.34 474.167 310.918 472.684 318.125C469.722 332.541 468.054 341.488 468.054 341.488C468.054 341.488 468.076 340.915 468.256 339.847C468.421 338.775 468.695 337.201 469.055 335.175C469.786 331.124 470.89 325.272 472.323 318.052C473.761 310.834 475.513 302.246 477.637 292.746C478.705 287.997 479.848 283.016 481.243 277.898C481.571 276.614 481.97 275.334 482.376 274.044C482.556 273.395 482.807 272.756 483.074 272.117L483.465 271.157L483.964 270.255C485.293 267.844 486.865 265.534 488.567 263.291C492.767 257.816 497.383 252.955 501.951 248.643L501.869 248.82C502.033 244.252 502.192 239.838 502.344 235.633L502.351 235.441L502.539 235.407C505.684 234.84 508.722 234.291 511.597 233.773L511.465 233.85C519.138 224.911 526.665 218.511 532.396 214.756C533.804 213.777 535.165 213.068 536.307 212.386C537.497 211.791 538.511 211.285 539.345 210.908C540.183 210.589 540.835 210.34 541.302 210.163C541.746 209.998 541.98 209.93 541.98 209.93Z" fill="#263238"/>
<path d="M510.304 265.415L511.436 359.111L497.168 450.366H534.783C534.783 450.366 551.878 381.078 555.859 366.517C559.725 352.378 565.517 281.209 566.031 277.715C566.232 276.345 570.31 251.767 558.305 240.172" fill="#05A75E"/>
<path d="M558.305 240.173C558.305 240.173 558.577 240.431 559.092 240.955C559.603 241.48 560.322 242.308 561.147 243.481C562.792 245.818 564.729 249.68 565.845 255.027C566.97 260.358 567.366 267.092 566.56 274.796C565.995 278.634 565.712 282.737 565.296 287.111C564.899 291.478 564.48 296.095 564.039 300.945C563.142 310.643 562.129 321.267 560.906 332.667C560.278 338.365 559.626 344.26 558.822 350.319C558.001 356.367 557.203 362.639 555.509 368.893C549.225 393.922 542.309 421.468 535.037 450.43L534.987 450.628H534.784C533.503 450.628 532.116 450.628 530.726 450.628C519.311 450.627 508.1 450.626 497.169 450.625H496.868L496.915 450.328C502.194 416.67 507.066 385.604 511.226 359.08L511.223 359.115C510.918 330.743 510.667 307.322 510.491 290.982C510.417 282.824 510.36 276.436 510.321 272.075C510.309 269.908 510.299 268.246 510.292 267.114C510.289 265.993 510.304 265.416 510.304 265.416C510.304 265.416 510.333 265.993 510.357 267.114C510.378 268.246 510.408 269.907 510.448 272.074C510.514 276.435 510.611 282.822 510.734 290.979C510.953 307.319 511.267 330.738 511.648 359.11V359.128L511.645 359.146C507.51 385.675 502.667 416.746 497.421 450.408L497.167 450.111C508.098 450.11 519.309 450.109 530.724 450.108C532.114 450.108 533.501 450.108 534.782 450.108L534.529 450.306C541.817 421.344 548.748 393.798 555.046 368.768C556.737 362.553 557.539 356.308 558.368 350.26C559.18 344.208 559.84 338.316 560.477 332.621C561.719 321.227 562.753 310.606 563.673 300.911C564.126 296.063 564.558 291.447 564.966 287.081C565.393 282.727 565.695 278.575 566.27 274.765C567.101 267.092 566.736 260.381 565.646 255.068C564.564 249.739 562.669 245.886 561.059 243.54C560.252 242.363 559.548 241.527 559.051 240.991C558.552 240.457 558.305 240.173 558.305 240.173Z" fill="#263238"/>
<path d="M530.197 368.332C530.175 368.397 529.059 368.094 527.29 367.49C525.522 366.887 523.107 365.967 520.5 364.811C517.893 363.652 515.59 362.478 513.957 361.571C512.323 360.665 511.35 360.039 511.383 359.98C511.42 359.914 512.455 360.425 514.127 361.245C515.799 362.066 518.116 363.182 520.711 364.335C523.307 365.486 525.688 366.455 527.418 367.145C529.148 367.835 530.222 368.26 530.197 368.332Z" fill="#263238"/>
<path d="M465.803 374.543C465.794 374.542 465.791 374.459 465.794 374.297C465.801 374.104 465.809 373.869 465.819 373.579C465.855 372.906 465.904 371.986 465.967 370.823C466.122 368.386 466.342 364.937 466.612 360.694C467.189 352.144 468.013 340.332 469.166 327.305C470.321 314.273 471.651 302.503 472.736 294.001C473.281 289.75 473.743 286.313 474.091 283.942C474.263 282.79 474.399 281.879 474.499 281.213C474.547 280.927 474.586 280.695 474.618 280.505C474.648 280.346 474.667 280.265 474.676 280.266C474.685 280.267 474.683 280.35 474.671 280.512C474.653 280.704 474.631 280.939 474.603 281.227C474.527 281.896 474.423 282.812 474.292 283.969C474.006 286.394 473.6 289.825 473.102 294.046C472.111 302.557 470.84 314.326 469.686 327.352C468.534 340.373 467.652 352.178 466.981 360.721C466.642 364.959 466.366 368.404 466.171 370.838C466.067 371.998 465.986 372.916 465.926 373.587C465.895 373.875 465.87 374.109 465.849 374.301C465.827 374.462 465.812 374.544 465.803 374.543Z" fill="#263238"/>
<path d="M541.98 228.352C541.817 228.407 540.895 224.752 538.441 220.888C536.022 217 533.129 214.585 533.249 214.462C533.288 214.415 534.059 214.953 535.156 216.004C536.252 217.052 537.643 218.644 538.882 220.61C540.116 222.578 540.949 224.522 541.417 225.964C541.889 227.408 542.04 228.337 541.98 228.352Z" fill="#263238"/>
<path d="M475.606 344.763C475.633 344.757 475.728 344.993 475.698 345.444C475.665 345.884 475.47 346.557 474.881 347.14C474.33 347.73 473.234 348.151 472.168 347.756C471.645 347.578 471.147 347.239 470.774 346.759C470.398 346.283 470.191 345.63 470.21 345.001C470.22 344.195 470.469 343.423 470.934 342.821C471.167 342.523 471.468 342.274 471.81 342.129C472.17 341.996 472.431 341.933 472.729 341.838L472.766 341.826L472.799 341.827C473.48 341.844 474.141 341.991 474.613 342.348C475.092 342.693 475.331 343.167 475.453 343.54C475.684 344.308 475.639 344.759 475.606 344.763C475.544 344.776 475.489 344.323 475.203 343.638C475.054 343.304 474.813 342.917 474.4 342.657C473.995 342.384 473.422 342.279 472.798 342.283L472.867 342.272C472.595 342.368 472.25 342.472 472.003 342.572C471.749 342.687 471.517 342.882 471.33 343.131C470.955 343.628 470.736 344.313 470.729 345.005C470.675 346.104 471.454 346.99 472.328 347.305C473.211 347.653 474.102 347.356 474.628 346.872C475.176 346.395 475.407 345.811 475.496 345.415C475.585 345.009 475.563 344.768 475.606 344.763Z" fill="#263238"/>
<path d="M474.207 377.893C474.233 377.887 474.328 378.123 474.299 378.574C474.266 379.014 474.071 379.687 473.482 380.27C472.932 380.859 471.835 381.281 470.769 380.886C470.246 380.708 469.748 380.369 469.375 379.889C468.999 379.413 468.792 378.76 468.811 378.131C468.822 377.325 469.07 376.553 469.535 375.951C469.768 375.653 470.069 375.404 470.412 375.259C470.772 375.126 471.033 375.063 471.331 374.968L471.368 374.956L471.401 374.957C472.082 374.974 472.743 375.121 473.215 375.478C473.694 375.823 473.933 376.297 474.055 376.671C474.285 377.438 474.24 377.889 474.207 377.893C474.145 377.906 474.09 377.453 473.804 376.768C473.655 376.434 473.414 376.047 473.001 375.787C472.596 375.514 472.023 375.409 471.399 375.413L471.468 375.402C471.196 375.498 470.851 375.602 470.604 375.702C470.35 375.817 470.118 376.012 469.931 376.261C469.556 376.758 469.336 377.443 469.33 378.135C469.276 379.234 470.055 380.12 470.929 380.435C471.812 380.783 472.703 380.485 473.229 380.002C473.777 379.525 474.008 378.941 474.097 378.545C474.186 378.139 474.164 377.898 474.207 377.893Z" fill="#263238"/>
<path d="M554.07 234.628C554.017 234.717 552.776 233.922 550.581 233.081C549.488 232.651 548.141 232.264 546.623 231.954C545.099 231.675 543.401 231.493 541.612 231.506C539.823 231.542 538.13 231.772 536.614 232.092C535.105 232.444 533.769 232.868 532.689 233.328C530.518 234.23 529.299 235.058 529.244 234.971C529.224 234.941 529.518 234.722 530.07 234.349C530.343 234.157 530.686 233.936 531.107 233.719C531.525 233.497 531.989 233.216 532.542 232.991C533.622 232.48 534.972 232.01 536.506 231.625C538.047 231.271 539.777 231.022 541.605 230.986C543.433 230.972 545.168 231.174 546.718 231.485C548.262 231.827 549.624 232.26 550.718 232.741C551.278 232.951 551.749 233.218 552.173 233.429C552.6 233.634 552.949 233.846 553.227 234.031C553.789 234.386 554.089 234.597 554.07 234.628Z" fill="#263238"/>
<g opacity="0.3">
<path d="M471.678 322.271C475.753 316.342 477.248 310.75 479.425 303.893C482.66 293.703 483.563 282.19 488.639 272.781C491.629 267.24 495.144 261.555 500.342 258.002C505.412 254.537 506.163 250.131 506.063 238.216C509.687 238.252 513.518 235.458 513.973 234.969C516.442 232.316 518.228 228.104 518.417 226.641C515.875 229.405 511.637 233.991 511.637 233.991C511.637 233.991 502.446 235.699 502.581 235.64C502.355 240.224 502.347 244.244 502.121 248.828C502.121 248.828 484.489 267.535 483.117 271.296C481.744 275.058 471.678 322.271 471.678 322.271Z" fill="black"/>
</g>
<g opacity="0.3">
<path d="M537.141 439.064C559.486 396.771 566.43 341.162 565.101 288.191C565.101 288.191 558.687 352.575 556.525 363.627C554.378 374.602 537.141 439.064 537.141 439.064Z" fill="black"/>
</g>
<path d="M540.552 203.123C540.561 203.138 540.389 203.27 540.051 203.506C539.665 203.768 539.171 204.103 538.562 204.516C537.201 205.411 535.326 206.643 533.033 208.15C528.289 211.207 521.828 215.37 514.691 219.97C511.928 221.732 509.266 223.429 506.776 225.017L506.794 225.004C505.929 225.673 505.085 226.326 504.266 226.96C503.426 227.576 502.705 228.203 502.008 228.888C500.623 230.226 499.39 231.527 498.281 232.708L498.081 232.921L497.966 232.656C496.768 229.887 495.788 227.623 495.08 225.986C494.768 225.236 494.516 224.63 494.32 224.16C494.152 223.74 494.072 223.515 494.089 223.508C494.106 223.5 494.22 223.71 494.421 224.115C494.641 224.574 494.923 225.166 495.274 225.9C496.021 227.52 497.053 229.76 498.316 232.501L498 232.45C499.093 231.248 500.312 229.929 501.695 228.566C502.369 227.886 503.158 227.191 503.982 226.578C504.795 225.941 505.631 225.285 506.489 224.612L506.498 224.605L506.507 224.599C508.993 223.005 511.651 221.3 514.41 219.53C521.581 214.979 528.071 210.861 532.838 207.836C535.167 206.387 537.072 205.203 538.455 204.343C539.086 203.963 539.596 203.656 539.996 203.416C540.352 203.209 540.543 203.108 540.552 203.123Z" fill="#263238"/>
<path d="M70.326 159.649C70.207 159.716 65.956 152.342 60.833 143.18C55.708 134.016 51.652 126.535 51.772 126.468C51.891 126.401 56.141 133.774 61.266 142.938C66.388 152.1 70.445 159.583 70.326 159.649Z" fill="#263238"/>
<path d="M84.6901 127.845C84.8271 127.853 84.6251 133.5 84.2401 140.457C83.8551 147.417 83.4321 153.051 83.2951 153.043C83.1581 153.036 83.3601 147.389 83.7451 140.43C84.1301 133.473 84.5531 127.838 84.6901 127.845Z" fill="#263238"/>
<path d="M60.056 167.468C60.012 167.598 55.22 166.095 49.353 164.112C43.484 162.128 38.764 160.416 38.808 160.286C38.852 160.156 43.643 161.659 49.512 163.643C55.378 165.626 60.1 167.339 60.056 167.468Z" fill="#263238"/>
<path d="M131.915 181.654C123.077 161.48 99.558 152.29 79.384 161.128C59.21 169.966 50.02 193.485 58.857 213.659C65.256 228.265 79.35 237.107 94.3 237.525C96.196 241.854 98.337 246.74 98.337 246.74L130.353 232.715C130.353 232.715 128.281 227.458 126.33 222.81C135.436 211.588 138.113 195.802 131.915 181.654Z" fill="#05A75E"/>
<path d="M125.556 234.806C125.556 234.806 125.465 234.664 125.298 234.38C125.129 234.089 124.885 233.667 124.566 233.116C123.928 232.002 123 230.351 121.835 228.208C119.517 223.918 116.253 217.652 112.675 209.696C111.778 207.709 110.864 205.614 109.939 203.421C109.483 202.321 109.018 201.2 108.544 200.057C108.084 198.917 107.568 197.73 107.46 196.417C107.406 195.765 107.487 195.085 107.745 194.461C108.001 193.845 108.466 193.259 109.134 193.003C109.804 192.74 110.562 192.891 111.165 193.229C111.77 193.578 112.281 194.093 112.613 194.718C113.295 195.986 113.148 197.555 112.545 198.84C111.938 200.143 110.875 201.228 109.597 201.943C108.317 202.658 106.806 202.998 105.307 202.874C103.802 202.759 102.348 202.137 101.133 201.212C99.9151 200.285 98.9111 199.05 98.2561 197.63C97.9331 196.922 97.6721 196.165 97.6001 195.368C97.5251 194.585 97.6081 193.716 98.1231 193.036C98.3761 192.702 98.7401 192.449 99.1381 192.317C99.5381 192.191 99.9651 192.163 100.373 192.228C101.196 192.341 101.947 192.787 102.52 193.365C103.103 193.943 103.547 194.636 103.931 195.35C104.311 196.067 104.647 196.804 104.955 197.559C105.564 199.068 106.022 200.668 106.161 202.326C106.301 203.972 106.113 205.711 105.335 207.228C104.956 207.984 104.46 208.685 103.843 209.266C103.224 209.841 102.485 210.295 101.674 210.542C100.861 210.786 99.9931 210.791 99.1741 210.63C98.3511 210.466 97.5831 210.111 96.8911 209.669C95.5041 208.776 94.3751 207.579 93.3741 206.331C92.8711 205.706 92.4001 205.062 91.9491 204.41C91.4991 203.76 91.0411 203.106 90.7031 202.377C90.3661 201.658 90.1611 200.828 90.3141 200.02C90.3861 199.621 90.5351 199.227 90.7921 198.898C91.0461 198.566 91.4301 198.332 91.8411 198.258C92.2551 198.176 92.6781 198.257 93.0451 198.416C93.4151 198.573 93.7461 198.796 94.0471 199.046C94.6501 199.544 95.1311 200.166 95.5501 200.795C97.2361 203.308 98.2651 206.289 98.0111 209.221C97.8781 210.679 97.3761 212.083 96.5681 213.26C95.7641 214.435 94.6121 215.381 93.2711 215.798C91.9291 216.237 90.4681 216.035 89.2531 215.465C88.0271 214.904 86.9881 213.975 86.3571 212.825C86.0361 212.254 85.8191 211.633 85.7321 210.989C85.6611 210.351 85.7121 209.669 86.0701 209.103C86.2511 208.824 86.5261 208.605 86.8401 208.496C87.1561 208.386 87.5051 208.4 87.8091 208.5C88.4261 208.705 88.8911 209.148 89.2851 209.6C90.0931 210.518 90.5331 211.63 91.0601 212.632C91.5701 213.652 92.0701 214.65 92.5581 215.625C96.4481 223.429 99.4811 229.803 101.496 234.244C102.506 236.463 103.257 238.202 103.761 239.383C104.005 239.971 104.191 240.421 104.32 240.732C104.444 241.037 104.501 241.196 104.501 241.196C104.501 241.196 104.426 241.045 104.293 240.744C104.158 240.436 103.963 239.989 103.708 239.406C103.187 238.233 102.42 236.503 101.394 234.291C99.3481 229.866 96.2881 223.508 92.3751 215.717C91.8841 214.744 91.3821 213.747 90.8691 212.729C90.3361 211.721 89.8971 210.625 89.1161 209.747C88.7371 209.312 88.2841 208.895 87.7401 208.718C87.2051 208.523 86.5681 208.736 86.2631 209.232C85.9511 209.722 85.8951 210.362 85.9651 210.963C86.0481 211.567 86.2571 212.168 86.5661 212.711C87.1721 213.811 88.1751 214.705 89.3561 215.243C90.5281 215.789 91.9231 215.977 93.1951 215.558C94.4721 215.158 95.5781 214.252 96.3541 213.115C97.1331 211.976 97.6201 210.612 97.7471 209.199C97.9911 206.348 96.9841 203.422 95.3221 200.951C94.9051 200.327 94.4461 199.737 93.8701 199.262C93.3101 198.801 92.6001 198.397 91.8941 198.535C91.1721 198.644 90.7061 199.35 90.5921 200.072C90.4531 200.807 90.6381 201.569 90.9611 202.262C91.2841 202.959 91.7331 203.603 92.1841 204.251C92.6331 204.899 93.1011 205.538 93.5991 206.156C94.5891 207.39 95.7031 208.566 97.0471 209.43C97.7171 209.858 98.4531 210.196 99.2341 210.352C100.012 210.505 100.83 210.5 101.593 210.27C103.133 209.805 104.363 208.561 105.078 207.104C105.827 205.644 106.011 203.966 105.875 202.354C105.739 200.735 105.291 199.16 104.69 197.67C104.063 196.2 103.419 194.684 102.321 193.571C101.775 193.02 101.088 192.618 100.334 192.512C99.5921 192.389 98.7911 192.615 98.3491 193.211C97.9001 193.8 97.8091 194.6 97.8821 195.344C97.9481 196.1 98.1981 196.828 98.5121 197.517C99.1451 198.894 100.121 200.096 101.302 200.996C102.481 201.895 103.884 202.495 105.332 202.607C106.776 202.728 108.235 202.402 109.47 201.714C110.703 201.027 111.729 199.981 112.311 198.733C112.893 197.504 113.022 196.013 112.392 194.841C112.085 194.258 111.603 193.773 111.045 193.45C110.486 193.137 109.809 193.007 109.225 193.236C108.639 193.458 108.212 193.982 107.972 194.557C107.73 195.14 107.65 195.778 107.701 196.402C107.8 197.66 108.301 198.831 108.761 199.974C109.232 201.117 109.694 202.239 110.147 203.339C111.065 205.533 111.973 207.628 112.863 209.617C116.414 217.578 119.648 223.854 121.935 228.159C123.084 230.309 123.996 231.968 124.618 233.091C124.926 233.648 125.162 234.074 125.325 234.369C125.481 234.654 125.556 234.806 125.556 234.806Z" fill="white"/>
<path d="M97.459 234.724C97.46 234.734 97.291 234.749 96.97 234.769C96.649 234.782 96.175 234.83 95.563 234.826C94.34 234.855 92.565 234.799 90.392 234.52C88.22 234.245 85.656 233.696 82.919 232.742C80.182 231.793 77.287 230.406 74.499 228.553C71.724 226.679 69.34 224.528 67.421 222.358C65.497 220.188 64.014 218.026 62.934 216.122C61.85 214.219 61.123 212.598 60.685 211.457C60.449 210.893 60.313 210.436 60.203 210.134C60.099 209.829 60.05 209.668 60.059 209.665C60.068 209.662 60.137 209.817 60.258 210.114C60.386 210.409 60.538 210.858 60.789 211.414C61.258 212.539 62.01 214.14 63.111 216.019C64.208 217.899 65.699 220.036 67.62 222.18C69.537 224.326 71.908 226.453 74.661 228.313C77.427 230.151 80.296 231.534 83.009 232.491C85.723 233.452 88.266 234.018 90.422 234.318C92.579 234.621 94.345 234.708 95.564 234.714C96.174 234.734 96.647 234.705 96.969 234.711C97.289 234.71 97.458 234.714 97.459 234.724Z" fill="#263238"/>
<path d="M58.557 202.021C58.635 202.008 58.856 202.907 59.05 204.03C59.244 205.153 59.337 206.074 59.259 206.088C59.181 206.102 58.96 205.202 58.766 204.079C58.572 202.956 58.478 202.035 58.557 202.021Z" fill="#263238"/>
<path d="M131.592 191.911C131.582 191.912 131.545 191.771 131.482 191.5C131.417 191.202 131.331 190.808 131.223 190.315C131.168 190.055 131.108 189.769 131.043 189.458C130.967 189.147 130.861 188.815 130.761 188.455C130.546 187.74 130.353 186.909 130.003 186.035C129.842 185.593 129.673 185.13 129.498 184.649C129.319 184.169 129.079 183.69 128.86 183.183C128.441 182.159 127.859 181.13 127.278 180.033C126.032 177.886 124.48 175.628 122.591 173.47C120.674 171.336 118.617 169.525 116.633 168.032C115.613 167.324 114.661 166.624 113.694 166.085C113.217 165.808 112.77 165.512 112.315 165.277C111.858 165.046 111.419 164.823 110.999 164.61C110.173 164.158 109.371 163.868 108.687 163.569C108.342 163.427 108.025 163.282 107.725 163.17C107.424 163.068 107.148 162.974 106.896 162.889C106.419 162.723 106.038 162.591 105.75 162.49C105.489 162.396 105.353 162.342 105.355 162.332C105.358 162.322 105.499 162.358 105.766 162.434C106.059 162.521 106.446 162.637 106.931 162.782C107.186 162.86 107.467 162.947 107.771 163.04C108.075 163.145 108.396 163.283 108.745 163.419C109.439 163.705 110.25 163.984 111.087 164.426C111.512 164.635 111.956 164.853 112.419 165.08C112.88 165.312 113.332 165.604 113.815 165.879C114.793 166.412 115.757 167.11 116.789 167.817C118.796 169.309 120.874 171.128 122.806 173.278C124.71 175.452 126.267 177.732 127.509 179.902C128.088 181.011 128.665 182.05 129.078 183.085C129.293 183.598 129.529 184.081 129.704 184.567C129.874 185.053 130.038 185.521 130.195 185.968C130.535 186.851 130.715 187.69 130.916 188.413C131.009 188.777 131.108 189.112 131.176 189.426C131.233 189.74 131.285 190.028 131.332 190.291C131.418 190.789 131.487 191.188 131.539 191.489C131.584 191.765 131.602 191.91 131.592 191.911Z" fill="#263238"/>
<g opacity="0.2">
<path d="M82.4711 172.04C81.1641 170.781 78.9771 170.409 76.6981 170.689C73.4381 171.09 70.5191 172.874 68.4761 175.445C62.4651 183.011 60.2071 189.944 61.3471 199.991C61.7331 203.394 63.4431 208.545 66.2001 210.837C67.5861 211.989 69.3641 212.62 71.1511 212.385C75.7991 211.774 77.3171 206.331 76.9171 201.943C76.5441 197.854 75.2071 193.636 76.5231 189.746C77.6081 186.541 80.3021 184.19 82.1701 181.37C84.0381 178.55 84.9081 174.386 82.4711 172.04Z" fill="white"/>
</g>
<g opacity="0.2">
<path d="M96.492 164.196C94.123 162.449 90.3161 162.964 88.7351 164.718C87.4661 166.211 86.8831 168.294 87.3021 170.208C87.8071 172.515 89.8251 174.432 92.1661 174.746C94.5071 175.06 96.994 173.701 97.93 171.532C98.865 169.364 98.393 165.598 96.492 164.196Z" fill="white"/>
</g>
<path d="M115.4 261.398C115.4 261.398 117.084 261.674 118.303 262.335C118.936 262.678 119.698 262.689 120.358 262.399L126.799 259.572C127.521 259.255 128.046 258.604 128.185 257.828C128.348 256.919 128.831 255.718 129.635 255.149L115.4 261.398Z" fill="#263238"/>
<path d="M100.555 246.524C100.612 246.653 106.522 256.058 108.783 259.653C109.711 261.129 111.302 262.106 113.046 262.129C113.682 262.138 114.365 262.03 115.055 261.727C117.815 260.515 129.142 255.543 129.142 255.543C129.142 255.543 132.823 253.927 132.376 250.64C131.905 247.18 128.261 234.362 128.261 234.362L100.555 246.524Z" fill="#E0E0E0"/>
<path d="M132.681 248.898L108.178 259.758C107.793 259.929 107.343 259.755 107.172 259.37L107.138 259.294C106.967 258.909 107.141 258.459 107.526 258.288L132.029 247.428C132.414 247.257 132.864 247.431 133.035 247.816L133.069 247.892C133.24 248.277 133.066 248.727 132.681 248.898Z" fill="#E0E0E0"/>
<path d="M132.681 248.898C132.662 248.883 132.908 248.828 133.057 248.469C133.125 248.293 133.127 248.045 132.984 247.801C132.868 247.561 132.554 247.354 132.207 247.426C130.867 247.994 128.906 248.909 126.491 249.983C121.637 252.145 114.958 255.12 107.58 258.406C107.386 258.491 107.245 258.675 107.211 258.882C107.195 258.985 107.202 259.091 107.237 259.189C107.277 259.293 107.325 259.401 107.39 259.474C107.525 259.632 107.74 259.714 107.945 259.689C108.131 259.663 108.376 259.518 108.596 259.431C109.496 259.033 110.383 258.64 111.255 258.255C112.998 257.485 114.68 256.742 116.283 256.035C119.486 254.627 122.373 253.358 124.803 252.289C127.22 251.237 129.181 250.383 130.556 249.784C131.225 249.499 131.75 249.275 132.125 249.115C132.295 249.046 132.43 248.99 132.536 248.947C132.63 248.91 132.679 248.893 132.681 248.898C132.683 248.902 132.638 248.927 132.548 248.971C132.445 249.02 132.313 249.084 132.148 249.163C131.777 249.334 131.258 249.573 130.598 249.877C129.231 250.494 127.281 251.373 124.878 252.457C122.454 253.54 119.575 254.826 116.38 256.254C114.779 256.966 113.099 257.714 111.358 258.488C110.487 258.875 109.6 259.268 108.701 259.668L108.363 259.818C108.259 259.865 108.123 259.931 107.976 259.947C107.687 259.983 107.385 259.868 107.193 259.645C107.094 259.528 107.04 259.404 106.991 259.275C106.942 259.137 106.932 258.985 106.955 258.841C107.001 258.55 107.203 258.288 107.475 258.17C114.865 254.911 121.555 251.961 126.417 249.816C128.852 248.761 130.792 247.881 132.189 247.328C132.588 247.255 132.934 247.499 133.054 247.768C133.197 248.026 133.189 248.308 133.107 248.49C132.928 248.864 132.667 248.898 132.681 248.898Z" fill="#263238"/>
<path d="M131.809 245.499L106.268 256.819C105.883 256.99 105.433 256.816 105.262 256.431L105.228 256.355C105.057 255.97 105.231 255.52 105.616 255.349L131.157 244.029C131.542 243.858 131.992 244.032 132.163 244.417L132.197 244.493C132.368 244.879 132.194 245.329 131.809 245.499Z" fill="#E0E0E0"/>
<path d="M131.809 245.499C131.788 245.484 132.049 245.427 132.193 245.049C132.261 244.863 132.244 244.608 132.09 244.359C131.953 244.117 131.605 243.931 131.255 244.046C129.836 244.684 127.811 245.595 125.316 246.718C120.274 248.963 113.335 252.053 105.671 255.467C105.47 255.555 105.324 255.75 105.299 255.967C105.284 256.074 105.3 256.184 105.341 256.284C105.39 256.408 105.435 256.491 105.514 256.57C105.666 256.723 105.899 256.788 106.107 256.736C106.307 256.671 106.567 256.539 106.793 256.444C107.728 256.03 108.65 255.623 109.555 255.222C111.366 254.422 113.113 253.651 114.778 252.915C118.106 251.451 121.104 250.133 123.628 249.023C126.139 247.929 128.176 247.042 129.604 246.42C130.299 246.123 130.845 245.89 131.234 245.724C131.411 245.652 131.551 245.594 131.661 245.549C131.757 245.513 131.807 245.495 131.809 245.499C131.811 245.503 131.764 245.529 131.671 245.575C131.564 245.626 131.427 245.691 131.255 245.774C130.871 245.951 130.332 246.198 129.645 246.514C128.226 247.154 126.2 248.067 123.703 249.193C121.185 250.318 118.195 251.653 114.875 253.136C113.212 253.876 111.467 254.652 109.658 255.456C108.753 255.858 107.832 256.267 106.898 256.682C106.652 256.784 106.457 256.894 106.168 256.989C105.874 257.062 105.547 256.971 105.332 256.755C105.223 256.653 105.146 256.501 105.101 256.383C105.044 256.242 105.021 256.086 105.042 255.935C105.076 255.63 105.284 255.353 105.566 255.23C113.243 251.844 120.192 248.779 125.242 246.551C127.766 245.448 129.797 244.554 131.225 243.951C131.629 243.828 132.014 244.05 132.157 244.321C132.312 244.585 132.325 244.875 132.242 245.068C132.07 245.464 131.794 245.499 131.809 245.499Z" fill="#263238"/>
<path d="M130.749 242.185L104.546 253.798C104.161 253.969 103.711 253.795 103.54 253.41L103.506 253.334C103.335 252.949 103.509 252.499 103.894 252.328L130.097 240.715C130.482 240.544 130.932 240.718 131.103 241.103L131.137 241.179C131.308 241.564 131.134 242.014 130.749 242.185Z" fill="#E0E0E0"/>
<path d="M130.749 242.185C130.727 242.17 130.997 242.112 131.137 241.722C131.205 241.53 131.176 241.269 131.013 241.02C130.864 240.778 130.494 240.605 130.144 240.751C128.692 241.405 126.617 242.339 124.061 243.491C118.9 245.789 111.795 248.953 103.948 252.447C103.743 252.537 103.594 252.74 103.574 252.962C103.562 253.073 103.582 253.183 103.627 253.286C103.68 253.412 103.728 253.493 103.814 253.571C103.977 253.721 104.221 253.771 104.429 253.704C104.648 253.616 104.904 253.496 105.138 253.394C106.095 252.97 107.039 252.553 107.966 252.143C109.82 251.324 111.609 250.534 113.313 249.781C116.72 248.282 119.79 246.932 122.374 245.796C124.945 244.676 127.031 243.766 128.492 243.13C129.204 242.826 129.763 242.587 130.161 242.417C130.342 242.342 130.486 242.283 130.597 242.238C130.696 242.199 130.748 242.181 130.749 242.185C130.75 242.189 130.703 242.215 130.607 242.262C130.498 242.314 130.358 242.381 130.181 242.465C129.788 242.645 129.236 242.899 128.532 243.223C127.08 243.877 125.005 244.812 122.448 245.965C119.871 247.116 116.809 248.483 113.41 250.001C111.708 250.758 109.921 251.553 108.069 252.376C107.143 252.787 106.2 253.206 105.243 253.631C104.997 253.738 104.778 253.843 104.508 253.951C104.213 254.046 103.871 253.975 103.641 253.764C103.525 253.667 103.438 253.511 103.39 253.391C103.328 253.251 103.3 253.09 103.316 252.935C103.343 252.622 103.554 252.334 103.843 252.208C111.702 248.741 118.818 245.602 123.987 243.322C126.559 242.202 128.646 241.293 130.107 240.656C130.511 240.498 130.92 240.705 131.078 240.977C131.244 241.242 131.269 241.539 131.187 241.738C131.018 242.149 130.732 242.184 130.749 242.185Z" fill="#263238"/>
<path d="M129.89 238.781L102.624 250.865C102.239 251.036 101.789 250.862 101.618 250.477L101.584 250.401C101.413 250.016 101.587 249.566 101.972 249.395L129.237 237.311C129.622 237.14 130.072 237.314 130.243 237.699L130.277 237.775C130.449 238.16 130.275 238.611 129.89 238.781Z" fill="#E0E0E0"/>
<path d="M129.89 238.781C129.866 238.765 130.151 238.706 130.285 238.296C130.351 238.096 130.303 237.822 130.126 237.574C129.952 237.334 129.557 237.188 129.203 237.381C127.697 238.059 125.544 239.029 122.891 240.224C117.538 242.607 110.168 245.889 102.027 249.513C101.813 249.606 101.664 249.822 101.651 250.053C101.638 250.274 101.759 250.536 101.93 250.67C102.112 250.811 102.368 250.84 102.577 250.744C102.827 250.633 103.076 250.523 103.324 250.413C104.317 249.974 105.296 249.541 106.257 249.115C108.18 248.265 110.036 247.446 111.804 246.665C115.338 245.11 118.523 243.709 121.202 242.53C123.87 241.367 126.033 240.423 127.547 239.763C128.286 239.447 128.866 239.199 129.277 239.023C129.465 238.945 129.615 238.884 129.73 238.837C129.835 238.796 129.888 238.777 129.89 238.781C129.892 238.785 129.842 238.812 129.743 238.861C129.631 238.914 129.485 238.984 129.301 239.071C128.895 239.257 128.321 239.52 127.59 239.856C126.084 240.534 123.932 241.504 121.278 242.699C118.604 243.893 115.428 245.311 111.902 246.885C110.136 247.67 108.283 248.495 106.361 249.349C105.4 249.776 104.422 250.21 103.429 250.65C103.181 250.76 102.932 250.871 102.682 250.981C102.392 251.114 102.027 251.075 101.772 250.876C101.646 250.779 101.542 250.639 101.486 250.499C101.422 250.369 101.378 250.196 101.391 250.037C101.408 249.712 101.62 249.406 101.921 249.276C110.074 245.679 117.455 242.422 122.816 240.057C125.484 238.894 127.648 237.95 129.161 237.29C129.554 237.085 130.006 237.257 130.187 237.529C130.372 237.799 130.413 238.101 130.334 238.312C130.264 238.526 130.131 238.646 130.04 238.708C129.947 238.77 129.89 238.781 129.89 238.781Z" fill="#263238"/>
<path d="M93.192 239.397C93.307 239.658 96.592 245.565 98.28 248.596C98.9 249.709 99.994 250.475 101.252 250.679L103.097 250.978L130.334 239.021L131.348 237.482C132.057 236.406 132.229 235.062 131.812 233.843L128.425 223.93L93.192 239.397Z" fill="#05A75E"/>
<g opacity="0.3">
<path d="M109.063 259.294C111.947 258.736 114.584 257.638 117.459 256.361C119.78 255.33 122.088 254.393 124.589 253.233C126.422 252.383 128.083 251.543 129.892 250.654C130.808 250.204 131.726 249.519 131.831 249.249L109.063 259.294Z" fill="black"/>
</g>
<g opacity="0.3">
<path d="M106.695 256.54C109.784 255.892 112.625 254.705 115.724 253.329C118.226 252.218 120.712 251.203 123.41 249.957C125.387 249.044 127.181 248.145 129.134 247.193C130.123 246.711 131.121 245.991 131.241 245.714L106.695 256.54Z" fill="black"/>
</g>
<g opacity="0.3">
<path d="M105.314 253.395C108.403 252.747 111.244 251.56 114.343 250.184C116.845 249.073 119.331 248.058 122.029 246.812C124.006 245.899 125.8 245 127.753 244.048C128.742 243.566 129.74 242.846 129.86 242.569L105.314 253.395Z" fill="black"/>
</g>
<g opacity="0.3">
<path d="M103.933 250.249C107.022 249.601 109.863 248.413 112.962 247.038C115.464 245.927 117.95 244.913 120.648 243.666C122.625 242.753 124.419 241.854 126.372 240.902C127.361 240.42 128.359 239.7 128.479 239.423L103.933 250.249Z" fill="black"/>
</g>
<path opacity="0.3" d="M93.192 239.397C93.307 239.658 96.592 245.565 98.28 248.596C98.9 249.709 99.994 250.475 101.252 250.679L103.097 250.978L130.334 239.021L131.348 237.482C132.057 236.406 132.229 235.062 131.812 233.843L128.425 223.93L93.192 239.397Z" fill="black"/>
<path d="M131.721 235.447C131.75 235.513 124.488 238.764 115.503 242.709C106.515 246.655 99.208 249.799 99.179 249.733C99.15 249.667 106.411 246.417 115.399 242.471C124.383 238.526 131.692 235.381 131.721 235.447Z" fill="#263238"/>
<path d="M128.153 223.834C128.188 223.906 120.316 227.469 110.574 231.791C100.828 236.115 92.902 239.561 92.868 239.49C92.833 239.418 100.703 235.856 110.449 231.532C120.191 227.21 128.118 223.762 128.153 223.834Z" fill="#263238"/>
<path d="M448.321 156.953L435.828 155.495C430.794 160.607 424.331 164.435 416.853 166.273C395.347 171.558 373.629 158.409 368.344 136.903C363.058 115.397 376.208 93.679 397.714 88.394C419.219 83.109 440.937 96.258 446.223 117.764C448.43 126.744 447.413 135.756 443.925 143.598L443.939 143.58L448.321 156.953Z" fill="white"/>
<path d="M448.321 156.953C448.321 156.953 448.208 156.648 448.011 156.069C447.809 155.475 447.521 154.623 447.142 153.506C446.383 151.248 445.269 147.932 443.82 143.619L444.036 143.658L444.022 143.676C443.979 143.73 443.9 143.739 443.846 143.696C443.801 143.66 443.788 143.598 443.81 143.547C445.904 138.756 447.74 132.027 447.055 124.061C446.886 122.08 446.571 120.033 446.058 117.959C445.447 115.913 444.888 113.77 443.927 111.7C442.141 107.523 439.523 103.385 436.007 99.744C432.502 96.103 428.108 92.967 423.053 90.794C418.008 88.616 412.301 87.413 406.42 87.535C394.673 87.669 382.28 93.704 374.842 104.307C371.08 109.698 368.569 115.872 367.831 122.162C367.021 128.436 367.735 134.726 369.674 140.397C371.594 146.087 374.853 151.077 378.744 155.083C382.649 159.095 387.235 162.108 391.964 164.087C396.697 166.075 401.564 167.028 406.152 167.169C406.727 167.176 407.297 167.184 407.863 167.191C408.429 167.208 408.99 167.208 409.544 167.138C410.653 167.04 411.744 166.944 412.816 166.849C414.926 166.428 416.988 166.13 418.893 165.515C426.58 163.203 432.139 159.045 435.745 155.411C435.771 155.384 435.809 155.372 435.844 155.376C439.871 155.878 442.972 156.265 445.087 156.529C446.132 156.663 446.931 156.765 447.49 156.836C448.032 156.907 448.321 156.953 448.321 156.953C448.321 156.953 448.065 156.935 447.535 156.88C446.982 156.822 446.193 156.738 445.16 156.629C443.021 156.397 439.886 156.056 435.814 155.613L435.912 155.578C432.32 159.267 426.745 163.498 418.998 165.87C417.079 166.499 414.998 166.811 412.869 167.244C411.786 167.344 410.685 167.446 409.565 167.55C409.006 167.622 408.439 167.626 407.867 167.61C407.295 167.605 406.719 167.6 406.138 167.595C401.5 167.47 396.573 166.522 391.779 164.524C386.989 162.535 382.339 159.496 378.375 155.44C374.426 151.39 371.115 146.338 369.161 140.573C367.188 134.829 366.457 128.452 367.276 122.088C368.022 115.709 370.564 109.446 374.38 103.979C374.81 103.282 375.343 102.664 375.86 102.037L377.41 100.16L379.121 98.444C379.684 97.867 380.25 97.296 380.889 96.808C381.508 96.298 382.125 95.789 382.741 95.281C383.343 94.755 384.047 94.369 384.693 93.909C385.358 93.477 385.994 93 386.68 92.61C387.376 92.237 388.07 91.864 388.761 91.493C394.334 88.6 400.448 87.077 406.407 86.992C412.369 86.876 418.151 88.104 423.256 90.32C428.372 92.532 432.813 95.718 436.35 99.412C439.898 103.106 442.533 107.301 444.323 111.53C445.286 113.625 445.844 115.793 446.451 117.862C446.961 119.959 447.27 122.028 447.431 124.028C448.083 132.074 446.187 138.845 444.038 143.647L443.826 143.518L443.84 143.501C443.883 143.447 443.961 143.438 444.015 143.48C444.035 143.496 444.049 143.518 444.056 143.54C445.453 147.912 446.527 151.272 447.258 153.561C447.609 154.67 447.876 155.516 448.063 156.106C448.243 156.676 448.321 156.953 448.321 156.953Z" fill="#263238"/>
<path d="M388.813 128.262L393.611 122.955L403.792 131.126L418.913 113.761L423.859 118.577L403.561 140.906L388.813 128.262Z" fill="#263238"/>
<path d="M338.283 160.421C340.097 160.195 342.756 159.863 346.209 159.432C346.239 159.429 346.271 159.439 346.294 159.462C349.386 162.578 354.152 166.143 360.743 168.125C362.376 168.652 364.145 168.908 365.954 169.269C366.873 169.35 367.808 169.433 368.759 169.516C369.234 169.576 369.715 169.577 370.2 169.562C370.685 169.556 371.174 169.55 371.667 169.543C375.601 169.422 379.774 168.605 383.832 166.9C384.873 166.464 385.906 165.968 386.924 165.415C386.613 165.295 386.3 165.182 385.99 165.052C381.295 163.103 376.737 160.124 372.852 156.148C368.981 152.179 365.736 147.227 363.821 141.576C361.887 135.946 361.171 129.695 361.973 123.458C362.704 117.205 365.196 111.067 368.936 105.708C369.358 105.025 369.88 104.419 370.387 103.804L371.906 101.965L372.559 101.31C372.184 101.292 371.809 101.267 371.436 101.262C366.393 101.157 361.501 102.189 357.175 104.056C352.841 105.92 349.073 108.609 346.068 111.73C343.054 114.852 340.809 118.4 339.278 121.981C338.454 123.755 337.974 125.593 337.451 127.347C337.011 129.126 336.74 130.881 336.596 132.579C336.009 139.41 337.583 145.179 339.379 149.287C339.398 149.33 339.387 149.382 339.349 149.413C338.117 153.079 337.169 155.902 336.522 157.826C336.198 158.784 335.95 159.514 335.777 160.023C335.608 160.519 335.511 160.781 335.511 160.781C335.511 160.781 335.759 160.742 336.224 160.682C336.702 160.623 337.387 160.536 338.283 160.421Z" fill="#F5F5F5"/>
<path d="M338.283 160.421C338.283 160.421 338.051 160.471 337.588 160.54C337.105 160.61 336.417 160.711 335.519 160.841L335.424 160.855L335.454 160.763C336.228 158.424 337.512 154.542 339.222 149.374L339.262 149.315C339.242 149.306 339.269 149.379 339.24 149.309L339.171 149.147L339.031 148.819C338.94 148.598 338.849 148.375 338.757 148.149C338.572 147.698 338.405 147.229 338.233 146.752C337.896 145.795 337.596 144.783 337.327 143.725C336.797 141.608 336.421 139.29 336.324 136.815C336.22 134.342 336.383 131.714 336.885 129.015C337.118 127.657 337.541 126.308 337.951 124.944C338.351 123.567 338.927 122.199 339.553 120.85C342.058 115.427 346.287 110.21 352.061 106.511C357.791 102.799 365.051 100.639 372.569 101.057L373.138 101.089L372.737 101.492C372.534 101.696 372.309 101.921 372.084 102.147L372.1 102.129C367.513 107.297 364.005 113.845 362.606 121.049C360.734 130.924 362.722 141.089 367.539 148.913C372.325 156.8 379.573 162.375 387.001 165.208L387.487 165.393L387.027 165.612C385.208 166.477 383.457 167.389 381.62 167.964C379.8 168.572 377.977 169.014 376.182 169.308C372.602 169.903 369.096 169.829 365.935 169.45L365.921 169.448L365.915 169.447C364.762 169.214 363.626 169.023 362.525 168.777C361.418 168.543 360.373 168.186 359.365 167.851C357.354 167.141 355.52 166.303 353.883 165.384C350.606 163.542 348.11 161.446 346.263 159.575C346.248 159.479 346.038 159.574 345.888 159.57C345.73 159.589 345.574 159.607 345.42 159.625C345.113 159.661 344.815 159.697 344.526 159.731C343.949 159.799 343.41 159.862 342.908 159.921C341.911 160.036 341.065 160.133 340.373 160.213C339.703 160.285 339.185 160.342 338.814 160.382C338.465 160.416 338.283 160.421 338.283 160.421C338.283 160.421 338.46 160.381 338.809 160.329C339.178 160.277 339.695 160.204 340.362 160.11C341.052 160.017 341.897 159.903 342.892 159.77C343.393 159.704 343.932 159.633 344.508 159.556C344.797 159.518 345.094 159.479 345.401 159.439C345.555 159.419 345.71 159.398 345.868 159.378L346.107 159.347C346.16 159.345 346.158 159.33 346.257 159.337C346.295 159.344 346.334 159.363 346.362 159.392L346.406 159.435C348.263 161.272 350.76 163.331 354.023 165.133C357.286 166.94 361.302 168.42 365.987 169.091L365.968 169.088C367.573 169.224 369.206 169.408 370.897 169.36C372.6 169.349 374.341 169.196 376.117 168.906C377.89 168.609 379.689 168.166 381.484 167.559C383.296 166.986 385.022 166.078 386.815 165.22L386.841 165.624C379.32 162.781 371.969 157.155 367.112 149.174C362.218 141.248 360.199 130.958 362.095 120.952C363.518 113.636 367.071 107.023 371.707 101.805L371.72 101.79L371.723 101.787C371.948 101.561 372.173 101.336 372.376 101.132L372.544 101.566C365.134 101.147 357.978 103.263 352.318 106.911C346.615 110.547 342.429 115.68 339.935 121.029C339.305 122.376 338.741 123.698 338.338 125.065C337.921 126.433 337.5 127.753 337.266 129.089C336.758 131.755 336.583 134.356 336.673 136.803C336.755 139.253 337.114 141.551 337.625 143.653C337.884 144.703 338.175 145.708 338.502 146.66C338.669 147.135 338.832 147.601 339.011 148.05C339.101 148.275 339.19 148.497 339.278 148.717L339.414 149.043L339.482 149.205C339.515 149.233 339.547 149.45 339.429 149.518L339.469 149.459C337.702 154.636 336.387 158.518 335.561 160.805L335.497 160.727C336.401 160.621 337.091 160.539 337.577 160.482C338.046 160.431 338.283 160.421 338.283 160.421Z" fill="#263238"/>
<path d="M674.328 166.459H661.886C659.428 166.459 657.436 164.467 657.436 162.009V93.995C657.436 91.537 659.428 89.545 661.886 89.545H674.328C676.786 89.545 678.778 91.537 678.778 93.995V162.009C678.778 164.466 676.786 166.459 674.328 166.459Z" fill="#45644B"/>
<path d="M607.313 169.724H595.178C592.636 169.724 590.575 167.663 590.575 165.121V139.411C590.575 136.869 592.636 134.808 595.178 134.808H607.313C609.855 134.808 611.916 136.869 611.916 139.411V165.121C611.917 167.663 609.856 169.724 607.313 169.724Z" fill="#45644B"/>
<path d="M639.977 169.724H628.473C625.757 169.724 623.554 167.522 623.554 164.805V120.739C623.554 118.023 625.756 115.82 628.473 115.82H639.977C642.693 115.82 644.896 118.022 644.896 120.739V164.805C644.896 167.522 642.693 169.724 639.977 169.724Z" fill="#45644B"/>
<path d="M670.887 64.129C670.905 64.145 670.729 64.377 670.375 64.807C669.966 65.29 669.442 65.908 668.791 66.677C667.326 68.357 665.293 70.687 662.768 73.581C657.521 79.496 650.242 87.7 641.838 97.174L641.605 97.437L641.309 97.244C637.196 94.557 632.778 91.671 628.214 88.69L628.771 88.609C628.614 88.795 628.443 88.996 628.272 89.198C617.483 101.854 607.719 113.308 600.577 121.686L600.394 121.901L600.171 121.735C595.83 118.511 592.291 115.884 589.758 114.002C588.592 113.114 587.659 112.403 586.952 111.865C586.316 111.369 585.991 111.097 586.008 111.073C586.025 111.049 586.385 111.275 587.053 111.726C587.783 112.232 588.748 112.899 589.953 113.734C592.525 115.562 596.118 118.115 600.525 121.248L600.119 121.297C607.211 112.878 616.909 101.367 627.624 88.649C627.795 88.447 627.966 88.246 628.123 88.06L628.366 87.773L628.68 87.979C633.238 90.97 637.65 93.865 641.758 96.56L641.229 96.629C649.723 87.236 657.079 79.102 662.383 73.237C664.982 70.411 667.075 68.134 668.584 66.493C669.276 65.762 669.834 65.173 670.269 64.713C670.658 64.313 670.869 64.113 670.887 64.129Z" fill="#263238"/>
<path d="M671.565 80.367C671.449 80.367 671.345 78.496 671.268 75.46C671.191 72.423 671.143 68.221 671.14 63.557L671.634 63.976C671.5 63.998 671.355 64.022 671.21 64.046C666.511 64.821 662.251 65.476 659.159 65.909C656.068 66.341 654.147 66.551 654.128 66.435C654.109 66.319 655.995 65.9 659.061 65.316C662.127 64.732 666.372 63.983 671.071 63.208C671.216 63.184 671.361 63.16 671.495 63.138L671.99 63.056V63.557C671.987 68.221 671.939 72.424 671.862 75.46C671.785 78.496 671.68 80.367 671.565 80.367Z" fill="#263238"/>
</svg>
